<svg version="1.1" id="Layer_1" xmlns="http://www.w3.org/2000/svg" xmlns:xlink="http://www.w3.org/1999/xlink" x="0px" y="0px"
	 width="100%" viewBox="0 0 500 500" enable-background="new 0 0 500 500" xml:space="preserve">
<path fill="#010000" opacity="1.000000" stroke="none" 
	d="
M322.000000,501.000000 
	C214.666687,501.000000 107.833382,501.000000 1.000057,501.000000 
	C1.000038,334.333405 1.000038,167.666794 1.000019,1.000147 
	C167.666565,1.000098 334.333130,1.000098 500.999756,1.000049 
	C500.999847,167.666519 500.999847,334.333038 500.999939,500.999786 
	C441.500000,501.000000 382.000000,501.000000 322.000000,501.000000 
M210.988281,257.993500 
	C210.988281,257.993500 210.956558,258.027130 211.393539,258.565491 
	C214.249878,259.745422 217.106216,260.925385 219.769684,262.615906 
	C219.510620,263.094299 219.251556,263.572693 218.322052,264.020966 
	C217.879715,263.977692 217.437363,263.934418 216.835968,263.742188 
	C216.835968,263.742188 216.638748,263.834930 216.112106,263.281738 
	C213.317535,262.067139 210.522949,260.852509 207.728378,259.637909 
	C207.249496,259.895844 206.770630,260.153778 206.291748,260.411743 
	C207.142334,263.456879 207.992935,266.502045 208.872787,269.858124 
	C208.872787,269.858124 209.151566,269.998810 209.357681,270.631897 
	C212.334091,272.391968 215.117294,274.712372 218.319824,275.816681 
	C233.453613,281.035004 249.037582,283.684113 264.925659,280.518402 
	C273.474213,278.815094 281.944885,276.177277 290.042603,272.940216 
	C295.759979,270.654694 296.890839,266.028931 294.924347,260.430756 
	C290.192566,262.137543 285.447479,263.849121 280.702393,265.560699 
	C280.474731,264.957550 280.247040,264.354401 280.019379,263.751221 
	C283.369446,262.185120 286.719482,260.618988 290.021301,258.998322 
	C290.021301,258.998322 290.031708,259.070374 290.770782,259.045471 
	C297.667847,254.517960 304.564880,249.990433 311.509827,245.415695 
	C311.509827,245.415695 311.556702,245.463898 312.065613,245.263870 
	C312.524384,244.705017 312.983185,244.146149 313.499786,243.492538 
	C313.499786,243.492538 313.592377,243.431229 314.129883,243.083298 
	C327.479645,229.792816 334.647339,213.262360 338.837769,195.273132 
	C339.216278,193.648285 337.577118,191.553452 336.625793,189.010941 
	C336.921021,188.730026 338.052338,187.786621 339.024658,186.700821 
	C341.071808,184.414749 341.720642,181.673630 338.950592,179.840546 
	C335.012756,177.234726 330.718140,175.123871 326.411133,173.163742 
	C325.693420,172.837128 324.138672,174.349625 322.247986,174.714432 
	C321.874146,171.643173 322.208099,168.240128 320.960419,165.578476 
	C319.093811,161.596405 316.917236,156.652466 313.437683,154.770355 
	C306.750427,151.153198 296.353180,158.309601 295.306885,165.975861 
	C295.154968,167.088837 293.778625,168.034714 292.423004,168.322403 
	C292.665619,163.454575 293.554962,158.942490 298.525452,156.471344 
	C298.895599,156.287323 298.883942,155.335297 298.996521,154.800079 
	C298.996521,154.800079 298.948242,154.863953 299.684601,154.907822 
	C301.759796,153.340820 303.834991,151.773804 306.243378,149.955185 
	C306.255310,150.021011 305.887299,149.300842 306.061676,148.753403 
	C308.144470,142.213898 301.496490,139.538910 299.795746,134.676315 
	C299.607086,134.136917 298.110931,133.801926 297.221527,133.802704 
	C292.432739,133.806885 286.968353,132.155792 284.562744,138.586761 
	C284.450073,138.888062 283.691895,138.947922 282.556244,139.057785 
	C282.013031,139.660919 281.469818,140.264053 280.968018,140.939163 
	C280.968018,140.939163 280.884979,140.940811 280.110382,140.925797 
	C279.337402,140.987473 278.564423,141.049149 277.172180,140.842651 
	C271.348297,138.380402 265.566040,135.654922 258.485565,137.727997 
	C258.040924,137.148575 257.596252,136.569153 257.105713,135.230820 
	C257.247803,134.488495 257.389862,133.746185 257.903320,132.706268 
	C258.070496,132.387924 258.042694,132.087601 257.805359,130.985733 
	C259.723419,118.320572 261.749084,105.669609 263.423859,92.972351 
	C263.634338,91.376556 261.995758,89.536873 261.213867,87.810188 
	C259.919739,89.201508 257.745300,90.440735 257.474365,92.008835 
	C255.717941,102.175125 254.372452,112.412514 252.899567,122.627647 
	C251.935425,129.314453 250.983505,136.003021 249.999573,142.876144 
	C251.940735,142.477631 253.381546,142.181839 255.342377,142.086502 
	C255.542877,142.684723 255.743393,143.282944 255.225296,144.095184 
	C251.262665,146.289246 247.334442,148.549408 243.318054,150.640213 
	C241.977890,151.337875 240.412079,151.602036 239.559326,151.192932 
	C240.249405,149.381165 240.939484,147.569382 242.447449,145.505951 
	C245.764603,146.840515 247.571579,145.402481 247.019775,141.475204 
	C244.659485,124.676147 242.248962,107.882805 239.598663,91.128220 
	C239.367752,89.668488 237.255447,88.506355 236.017044,87.205994 
	C235.171677,88.747154 233.408524,90.429237 233.620239,91.808083 
	C236.288589,109.185913 239.248810,126.518852 242.093613,143.869965 
	C242.194031,144.482391 241.871353,145.164185 241.266968,146.561569 
	C239.094513,142.809647 237.276672,138.787155 234.667984,135.368073 
	C230.573532,130.001678 223.643341,128.530380 218.207245,131.250061 
	C209.466171,135.623260 204.977554,148.786926 209.105133,157.559967 
	C210.216797,159.922760 210.853760,162.508865 211.251282,165.229538 
	C210.812683,165.492706 210.374084,165.755875 209.508835,165.431061 
	C207.318619,158.280258 203.792847,152.071747 197.504745,147.643814 
	C187.070740,140.296417 175.034821,145.224258 174.268387,157.905075 
	C173.893585,164.106247 176.126450,170.465012 177.008942,177.422974 
	C176.649155,177.965912 176.289352,178.508865 175.544876,178.667526 
	C173.975052,179.450836 171.837067,179.861053 171.004684,181.128632 
	C170.260284,182.262192 170.712875,184.398819 171.088272,185.986191 
	C171.425064,187.410294 172.375748,188.689224 172.433578,190.440323 
	C171.690399,190.800446 170.270889,191.234772 170.301086,191.510025 
	C171.773727,204.931580 174.538269,217.985657 181.747482,229.877319 
	C181.747482,229.877319 181.904266,229.995453 181.992905,230.687851 
	C182.927017,232.006226 183.861145,233.324600 184.765930,234.871353 
	C184.765930,234.871353 184.960968,234.993759 185.092728,235.675262 
	C187.709595,238.811081 190.326462,241.946899 192.992432,245.008835 
	C192.992432,245.008835 192.916306,245.054382 193.114975,245.692902 
	C196.731644,248.480621 200.348328,251.268326 203.987732,253.994766 
	C203.987732,253.994766 203.941650,254.041473 204.319153,254.597076 
	C206.539474,255.744232 208.759796,256.891388 210.988281,257.993500 
M276.192352,300.105072 
	C278.554749,305.285553 280.917145,310.466034 283.487915,316.103424 
	C284.229553,315.935791 285.598419,315.626373 286.071533,315.519409 
	C286.071533,306.611877 286.071533,298.301849 286.071533,288.455231 
	C284.008301,290.270538 282.278320,291.133301 281.674561,292.495331 
	C280.963409,294.099518 281.228027,296.136322 281.023743,298.520447 
	C275.471130,290.925995 274.123535,290.455078 272.251038,294.061951 
	C267.751923,294.061951 263.668030,294.061951 260.682739,294.061951 
	C259.374054,296.038086 258.660156,297.116119 257.878357,297.459564 
	C254.527832,292.615051 249.830078,294.287170 245.341782,294.424347 
	C245.341782,302.958282 245.341782,311.042603 245.341782,319.355591 
	C247.004730,319.355591 248.389297,319.355591 249.932037,319.355591 
	C250.081146,317.298981 250.209808,315.524353 250.333633,313.816467 
	C256.344696,312.310516 258.791809,312.771179 258.033661,304.304138 
	C257.900513,302.817291 257.969299,301.312378 258.717621,299.095306 
	C259.163208,300.046692 259.875763,300.962036 260.009796,301.955444 
	C260.722046,307.233276 261.278015,312.532013 261.926788,317.818756 
	C261.980804,318.258820 262.321808,318.663666 262.648682,319.326599 
	C264.075958,319.095612 265.464813,318.870789 266.891388,318.639893 
	C266.891388,316.530914 266.891388,314.743835 266.891388,313.025848 
	C273.955261,310.602051 274.458099,309.808899 275.080536,300.581177 
	C275.279266,300.234192 275.477997,299.887238 276.192352,300.105072 
M332.865784,335.246674 
	C322.564423,334.443695 320.102905,325.088623 314.983582,318.313385 
	C311.664429,320.372772 308.619263,322.262146 306.135406,323.803253 
	C305.793732,325.887543 305.548706,327.382050 304.718567,328.229340 
	C296.899139,325.609406 291.133301,328.049255 287.377472,335.803619 
	C286.957397,335.412476 286.537323,335.021362 286.329437,334.089050 
	C286.226318,333.726379 286.123169,333.363708 286.072815,332.425507 
	C285.723877,332.367859 285.374969,332.310211 284.266724,332.158966 
	C282.200623,332.570679 280.134521,332.982391 277.838928,333.439850 
	C279.084503,350.290771 280.307892,366.841278 281.531250,383.391785 
	C281.135071,383.763153 280.738861,384.134521 280.342682,384.505890 
	C279.196991,383.436676 277.384155,382.558197 277.014954,381.266968 
	C274.777588,373.442047 272.883972,365.519196 270.847626,357.636292 
	C268.950653,350.293030 267.018951,342.958710 264.944885,335.016632 
	C256.293274,339.224091 244.922791,332.409973 239.689758,342.940735 
	C236.631378,340.250916 234.164612,336.695038 230.823715,335.407684 
	C221.463516,331.800934 211.753128,329.096039 202.150803,326.132935 
	C200.867813,325.737000 199.410858,325.904907 197.438995,325.314758 
	C189.553894,320.009247 181.668793,314.703766 173.433578,309.162659 
	C171.682755,311.946930 170.296478,314.151459 168.921432,316.338135 
	C169.911072,317.257355 170.707367,317.996979 171.607605,318.833130 
	C162.719757,333.007202 153.923798,347.034729 144.977219,361.302429 
	C147.572540,362.882782 149.764954,364.217834 152.127792,365.656616 
	C156.262268,359.163757 160.143295,353.068878 163.915070,347.145599 
	C168.621185,348.970490 168.388626,351.679993 166.661743,355.004913 
	C164.086533,359.963226 161.699020,365.018982 159.149078,370.201080 
	C161.780151,371.821899 163.959930,373.164673 166.332077,374.626007 
	C167.982376,371.294739 169.636063,368.579865 170.720917,365.654053 
	C174.500198,355.461731 180.051025,346.446136 187.479736,338.488373 
	C191.259903,334.438995 194.567108,329.948059 198.895889,326.200623 
	C198.370239,328.549713 196.772537,332.470856 197.507202,332.971832 
	C200.461227,334.986328 198.213867,336.390289 197.545547,337.855225 
	C196.583054,339.964996 195.299362,341.927338 194.167892,343.961029 
	C187.738678,355.516510 181.313980,367.074463 174.736374,378.903809 
	C177.701584,379.989349 180.137726,380.881195 182.495270,381.744263 
	C187.612213,374.632019 190.908997,373.148987 197.162369,375.193146 
	C195.967575,378.700012 194.772583,382.207458 193.543945,385.813660 
	C196.428482,386.856750 198.723877,387.686798 201.171875,388.572021 
	C207.644943,372.841431 212.071213,356.779053 219.001175,341.766571 
	C219.705566,341.972321 220.409958,342.178040 221.114349,342.383789 
	C219.630157,359.138336 218.145966,375.892914 216.650208,392.778015 
	C219.822983,392.974915 222.280777,393.127441 224.982559,393.295105 
	C226.518875,376.885406 228.028778,360.757721 229.538681,344.630035 
	C230.103943,344.652069 230.669189,344.674072 231.234451,344.696106 
	C235.992844,360.959412 230.199417,377.292053 230.474060,393.883636 
	C233.062134,394.166046 235.618759,394.445038 238.514725,394.761047 
	C238.760101,392.122223 238.906311,389.993713 239.163330,387.878693 
	C240.547119,376.491302 241.832520,365.089264 243.457809,353.736084 
	C243.818207,351.218628 245.411880,348.877747 246.437698,346.455566 
	C246.973434,346.629425 247.509171,346.803314 248.044891,346.977203 
	C246.617859,362.949432 245.190826,378.921631 243.740265,395.157104 
	C246.687103,395.468048 249.273819,395.740997 252.037537,396.032623 
	C253.657471,378.966156 255.232162,362.376282 256.806854,345.786377 
	C257.493195,345.707733 258.179535,345.629059 258.865845,345.550415 
	C263.055450,361.691895 267.245026,377.833374 271.448853,394.029785 
	C275.157654,393.534210 278.364868,393.105652 282.145569,392.600494 
	C281.238220,396.917847 280.503723,400.412964 279.760010,403.951752 
	C290.414062,403.226166 288.996094,403.576752 290.090454,394.085480 
	C290.468811,390.804138 290.239899,387.427795 290.041748,384.109589 
	C289.436371,373.971436 288.667877,363.842896 288.086456,353.703522 
	C288.012939,352.421478 288.676117,351.097198 289.485321,349.911621 
	C289.649353,349.944244 289.813354,349.976837 290.033936,350.725525 
	C291.157654,352.900635 292.462128,355.003113 293.370605,357.264679 
	C295.905884,363.575714 298.156372,370.002411 300.744812,376.290558 
	C303.730499,383.543549 310.577087,385.958313 317.529053,382.434082 
	C323.182739,379.567993 325.264801,373.873413 322.771057,367.152008 
	C318.292816,355.081848 313.632721,343.079224 309.906769,330.987610 
	C311.327087,331.492737 313.366821,331.568878 314.063690,332.575073 
	C317.655273,337.760834 320.892609,343.191345 324.272156,348.524658 
	C329.305908,356.468597 334.355194,364.402740 339.525940,372.542633 
	C342.120361,370.854736 344.281311,369.448822 346.507233,368.000671 
	C341.306213,359.671204 336.392792,351.802307 331.382416,343.778137 
	C345.021606,343.961243 347.320068,355.859467 353.672394,363.635681 
	C356.054504,362.094025 358.215973,360.695160 360.586029,359.161316 
	C349.964630,342.353729 339.614960,325.976135 329.138031,309.397186 
	C326.520203,311.008148 324.328705,312.356720 322.024750,313.774536 
	C326.435394,320.981384 330.573059,327.742126 334.108490,334.949402 
	C333.927246,335.121521 333.746033,335.293610 332.865784,335.246674 
M228.959366,299.793488 
	C229.422546,297.550690 229.885712,295.307922 230.419464,292.723419 
	C228.659912,292.388458 227.279831,292.125732 225.951294,291.872803 
	C222.930466,300.861877 222.930466,300.861877 219.958832,300.192627 
	C220.547043,297.173309 221.138382,294.137909 221.795731,290.763763 
	C220.084457,290.423401 218.694946,290.147034 216.966873,289.803345 
	C215.077667,298.141876 213.260925,306.160614 211.360687,314.547821 
	C213.372986,314.825897 214.750595,315.016266 216.056488,315.196716 
	C219.001572,305.526031 219.001572,305.526031 222.074677,306.453613 
	C221.422836,309.631958 220.766052,312.834381 220.044113,316.354584 
	C221.824905,316.710419 223.215759,316.988342 224.878220,317.320526 
	C226.249756,311.549316 227.550964,306.074005 228.959366,299.793488 
M234.883835,295.331177 
	C232.493271,302.686890 230.102707,310.042633 227.712128,317.398346 
	C227.994019,317.810547 228.275909,318.222748 228.557785,318.634949 
	C230.062012,317.825073 231.489731,316.741516 233.094925,316.292755 
	C234.357254,315.939850 236.035049,315.978241 237.174576,316.549042 
	C238.712357,317.319305 239.910889,318.766846 241.254990,319.923767 
	C241.634109,319.516144 242.013229,319.108490 242.392349,318.700836 
	C241.598694,310.487274 240.805038,302.273743 239.911438,293.025848 
	C238.010315,293.642303 236.547455,294.116638 234.883835,295.331177 
z"/>
<path fill="#F9BB5B" opacity="1.000000" stroke="none" 
	d="
M184.960968,234.993759 
	C184.960968,234.993759 184.765930,234.871353 184.816711,234.360031 
	C183.879745,232.564285 182.892014,231.279861 181.904266,229.995453 
	C181.904266,229.995453 181.747482,229.877319 181.820282,229.335190 
	C181.551666,226.862961 181.498932,224.822845 180.813217,223.023987 
	C178.962982,218.170044 176.452393,213.538483 174.939102,208.593658 
	C173.395355,203.549286 172.726532,198.237183 171.464935,192.006546 
	C177.628632,195.172028 181.917053,200.100876 188.800446,197.762482 
	C191.773499,198.457535 194.376297,199.159317 197.152588,200.209244 
	C200.976883,202.003418 204.522339,204.201324 208.301544,204.730759 
	C215.072479,205.679367 221.982025,205.883743 228.837296,205.938187 
	C247.442123,206.085922 266.049347,206.045670 284.653961,205.887756 
	C286.067444,205.875748 287.468018,204.349777 289.118530,203.405670 
	C289.902618,203.286316 290.442749,203.288834 291.332092,203.509766 
	C296.489685,203.735794 301.540619,204.701508 306.057617,203.558075 
	C316.507538,200.912735 326.698914,197.246155 336.997559,193.996857 
	C337.000000,194.000000 337.006104,194.004852 336.952332,194.336456 
	C333.934326,196.535294 336.003815,199.366196 335.460205,201.605118 
	C334.226562,206.685959 332.359680,211.681290 330.174042,216.447144 
	C326.640747,224.151566 322.542358,231.529648 316.229797,237.497513 
	C314.778168,238.869873 314.441925,241.422028 313.592377,243.431229 
	C313.592377,243.431229 313.499786,243.492538 313.103149,243.411270 
	C312.323242,244.041306 311.939972,244.752609 311.556702,245.463898 
	C311.556702,245.463898 311.509827,245.415695 311.106262,245.399353 
	C303.812378,249.945480 296.922058,254.507935 290.031708,259.070374 
	C290.031708,259.070374 290.021301,258.998322 289.629944,259.002441 
	C287.771240,259.209778 286.152130,259.080139 284.860870,259.669281 
	C275.251495,264.053253 264.967529,264.663544 254.699829,264.921509 
	C246.594757,265.125153 238.471222,264.594910 230.118195,264.391113 
	C229.560699,264.335480 229.269577,264.211761 228.821747,263.687988 
	C226.400635,262.920441 224.164917,262.485443 221.962006,262.028534 
	C221.994827,262.006592 221.958328,262.076599 221.917664,261.727051 
	C220.915314,260.915833 219.953613,260.454132 218.960297,259.704407 
	C218.286377,259.280334 217.644058,259.144226 216.649475,258.852356 
	C214.516998,258.473480 212.736786,258.250305 210.956558,258.027130 
	C210.956558,258.027130 210.988281,257.993500 210.931885,257.660461 
	C209.438049,254.388184 206.984985,253.592026 203.941650,254.041473 
	C203.941650,254.041473 203.987732,253.994766 203.951904,253.675186 
	C200.131088,250.745422 198.927155,244.715134 192.916306,245.054382 
	C192.916306,245.054382 192.992432,245.008835 192.983307,244.671524 
	C191.984863,241.886368 190.995544,239.438538 190.164658,236.901703 
	C190.213959,236.548111 190.104843,236.283508 189.624512,236.009933 
	C187.822525,235.665222 186.391754,235.329483 184.960968,234.993759 
M277.360229,220.350494 
	C275.781311,216.946732 273.141235,215.365952 269.393768,215.824493 
	C265.584778,216.290588 263.095978,218.899078 262.843628,222.256042 
	C262.551453,226.142685 262.817871,230.524445 264.388794,233.990005 
	C266.645721,238.968964 273.482391,238.797729 276.639221,234.243973 
	C279.531494,230.071915 279.543060,225.609161 277.360229,220.350494 
M225.795975,220.490112 
	C225.435135,223.715561 224.396088,227.048187 224.884491,230.139450 
	C225.500015,234.035187 227.921005,237.221817 232.464127,237.539993 
	C236.911118,237.851410 238.979294,234.741226 240.555496,231.329681 
	C242.607407,226.888550 240.534409,219.236755 236.837662,216.867630 
	C233.298279,214.599304 229.612030,215.612640 225.795975,220.490112 
M259.076782,242.501602 
	C253.939301,241.761169 248.801819,241.020721 243.664337,240.280273 
	C243.277206,240.874237 242.890091,241.468185 242.502960,242.062149 
	C243.586090,245.388290 243.873154,249.436935 246.017639,251.799835 
	C247.583344,253.524963 251.857681,254.009338 254.459137,253.311523 
	C259.189301,252.042694 259.117065,247.502762 259.076782,242.501602 
z"/>
<path fill="#F6F6F5" opacity="1.000000" stroke="none" 
	d="
M288.997986,349.792480 
	C288.676117,351.097198 288.012939,352.421478 288.086456,353.703522 
	C288.667877,363.842896 289.436371,373.971436 290.041748,384.109589 
	C290.239899,387.427795 290.468811,390.804138 290.090454,394.085480 
	C288.996094,403.576752 290.414062,403.226166 279.760010,403.951752 
	C280.503723,400.412964 281.238220,396.917847 282.145569,392.600494 
	C278.364868,393.105652 275.157654,393.534210 271.448853,394.029785 
	C267.245026,377.833374 263.055450,361.691895 258.865845,345.550415 
	C258.179535,345.629059 257.493195,345.707733 256.806854,345.786377 
	C255.232162,362.376282 253.657471,378.966156 252.037537,396.032623 
	C249.273819,395.740997 246.687103,395.468048 243.740265,395.157104 
	C245.190826,378.921631 246.617859,362.949432 248.044891,346.977203 
	C247.509171,346.803314 246.973434,346.629425 246.437698,346.455566 
	C245.411880,348.877747 243.818207,351.218628 243.457809,353.736084 
	C241.832520,365.089264 240.547119,376.491302 239.163330,387.878693 
	C238.906311,389.993713 238.760101,392.122223 238.514725,394.761047 
	C235.618759,394.445038 233.062134,394.166046 230.474060,393.883636 
	C230.199417,377.292053 235.992844,360.959412 231.234451,344.696106 
	C230.669189,344.674072 230.103943,344.652069 229.538681,344.630035 
	C228.028778,360.757721 226.518875,376.885406 224.982559,393.295105 
	C222.280777,393.127441 219.822983,392.974915 216.650208,392.778015 
	C218.145966,375.892914 219.630157,359.138336 221.114349,342.383789 
	C220.409958,342.178040 219.705566,341.972321 219.001175,341.766571 
	C212.071213,356.779053 207.644943,372.841431 201.171875,388.572021 
	C198.723877,387.686798 196.428482,386.856750 193.543945,385.813660 
	C194.772583,382.207458 195.967575,378.700012 197.162369,375.193146 
	C190.908997,373.148987 187.612213,374.632019 182.495270,381.744263 
	C180.137726,380.881195 177.701584,379.989349 174.736374,378.903809 
	C181.313980,367.074463 187.738678,355.516510 194.167892,343.961029 
	C195.299362,341.927338 196.583054,339.964996 197.545547,337.855225 
	C198.213867,336.390289 200.461227,334.986328 197.507202,332.971832 
	C196.772537,332.470856 198.370239,328.549713 198.457916,325.960205 
	C198.019928,325.719818 198.034454,325.811707 198.034454,325.811707 
	C199.410858,325.904907 200.867813,325.737000 202.150803,326.132935 
	C211.753128,329.096039 221.463516,331.800934 230.823715,335.407684 
	C234.164612,336.695038 236.631378,340.250916 239.689758,342.940735 
	C244.922791,332.409973 256.293274,339.224091 264.944885,335.016632 
	C267.018951,342.958710 268.950653,350.293030 270.847626,357.636292 
	C272.883972,365.519196 274.777588,373.442047 277.014954,381.266968 
	C277.384155,382.558197 279.196991,383.436676 280.342682,384.505890 
	C280.738861,384.134521 281.135071,383.763153 281.531250,383.391785 
	C280.307892,366.841278 279.084503,350.290771 277.838928,333.439850 
	C280.134521,332.982391 282.200623,332.570679 284.772034,332.378296 
	C285.486481,332.802795 285.734039,332.937256 286.020020,333.001038 
	C286.123169,333.363708 286.226318,333.726379 286.186401,334.818085 
	C286.683716,338.042999 287.324066,340.538879 287.974823,343.382080 
	C288.222534,344.641785 288.459900,345.554169 288.697235,346.466583 
	C289.095245,346.310547 289.493256,346.154541 289.891266,345.998505 
	C289.271027,344.992340 288.650818,343.986145 288.022003,342.549438 
	C288.034180,339.836548 288.054932,337.554230 288.075684,335.271881 
	C291.133301,328.049255 296.899139,325.609406 305.074158,328.582764 
	C305.429779,328.936218 305.678589,329.062317 306.025452,329.117615 
	C306.603271,329.133942 306.834167,329.095001 307.115204,329.112793 
	C307.165314,329.169556 307.272644,329.276398 307.229675,329.546021 
	C307.732697,330.153351 308.278687,330.491058 308.879944,330.884399 
	C308.935181,330.940063 309.048584,331.048370 309.048584,331.048370 
	C313.632721,343.079224 318.292816,355.081848 322.771057,367.152008 
	C325.264801,373.873413 323.182739,379.567993 317.529053,382.434082 
	C310.577087,385.958313 303.730499,383.543549 300.744812,376.290558 
	C298.156372,370.002411 295.905884,363.575714 293.370605,357.264679 
	C292.462128,355.003113 291.157654,352.900635 290.221008,350.213623 
	C290.250519,349.269318 290.092896,348.836884 289.935303,348.404480 
	C289.622864,348.867157 289.310425,349.329834 288.997986,349.792480 
M295.995300,339.414185 
	C300.072601,350.442505 304.032104,361.517761 308.380707,372.438019 
	C308.906616,373.758636 311.534332,374.242279 313.187897,375.113831 
	C313.726868,373.310913 315.167297,371.189392 314.660736,369.755981 
	C310.963135,359.293579 306.927612,348.948273 302.835876,338.630615 
	C302.371613,337.459869 300.747925,335.795410 299.923279,335.932465 
	C298.491882,336.170349 297.264771,337.637299 295.995300,339.414185 
M192.402313,365.010345 
	C194.973892,365.561768 197.545471,366.113220 200.375519,366.720062 
	C203.877747,357.032837 207.220490,347.786682 210.914917,337.567749 
	C208.955093,338.318146 207.691132,338.392792 207.332916,339.000977 
	C202.388977,347.394531 197.569580,355.861420 192.402313,365.010345 
z"/>
<path fill="#EFB760" opacity="1.000000" stroke="none" 
	d="
M336.995148,193.993729 
	C326.698914,197.246155 316.507538,200.912735 306.057617,203.558075 
	C301.540619,204.701508 296.489685,203.735794 291.751740,203.406250 
	C298.534454,202.016098 305.246704,200.947861 312.357300,199.887329 
	C317.100861,198.837051 321.446106,197.779083 325.791321,196.721115 
	C325.636475,196.000198 325.481628,195.279266 325.326813,194.558350 
	C320.885468,195.498749 316.444122,196.439163 311.560669,197.403961 
	C290.326965,201.479187 269.315216,202.183746 248.193893,202.050125 
	C227.505493,201.919235 207.191483,199.126846 186.762939,194.671082 
	C183.339783,193.135559 180.186768,191.802887 176.966354,190.660217 
	C175.715027,190.216217 174.311539,190.201111 172.996643,190.001587 
	C173.015915,190.012543 173.055618,190.032181 173.055618,190.032181 
	C172.375748,188.689224 171.425064,187.410294 171.088272,185.986191 
	C170.712875,184.398819 170.260284,182.262192 171.004684,181.128632 
	C171.837067,179.861053 173.975052,179.450836 175.774780,179.205750 
	C180.507889,188.932724 188.786438,191.754761 198.514404,192.914215 
	C207.277802,193.992371 215.596893,195.302612 223.967224,195.948074 
	C249.344070,197.904877 274.683258,197.686035 300.294373,193.751312 
	C306.299316,192.262939 312.041412,191.114761 317.482574,189.138199 
	C322.889008,187.174240 323.731201,184.522827 322.027039,178.286957 
	C322.322418,176.984283 322.646545,175.998276 322.970703,175.012283 
	C324.138672,174.349625 325.693420,172.837128 326.411133,173.163742 
	C330.718140,175.123871 335.012756,177.234726 338.950592,179.840546 
	C341.720642,181.673630 341.071808,184.414749 339.024658,186.700821 
	C338.052338,187.786621 336.921021,188.730026 336.625793,189.010941 
	C337.577118,191.553452 339.216278,193.648285 338.837769,195.273132 
	C334.647339,213.262360 327.479645,229.792816 313.861145,243.257263 
	C314.441925,241.422028 314.778168,238.869873 316.229797,237.497513 
	C322.542358,231.529648 326.640747,224.151566 330.174042,216.447144 
	C332.359680,211.681290 334.226562,206.685959 335.460205,201.605118 
	C336.003815,199.366196 333.934326,196.535294 337.082764,194.282196 
	C337.176361,193.928787 337.085754,193.961258 336.995148,193.993729 
z"/>
<path fill="#F6F6F5" opacity="1.000000" stroke="none" 
	d="
M197.736725,325.563232 
	C198.034454,325.811707 198.019928,325.719818 198.054016,325.688293 
	C194.567108,329.948059 191.259903,334.438995 187.479736,338.488373 
	C180.051025,346.446136 174.500198,355.461731 170.720917,365.654053 
	C169.636063,368.579865 167.982376,371.294739 166.332077,374.626007 
	C163.959930,373.164673 161.780151,371.821899 159.149078,370.201080 
	C161.699020,365.018982 164.086533,359.963226 166.661743,355.004913 
	C168.388626,351.679993 168.621185,348.970490 163.915070,347.145599 
	C160.143295,353.068878 156.262268,359.163757 152.127792,365.656616 
	C149.764954,364.217834 147.572540,362.882782 144.977219,361.302429 
	C153.923798,347.034729 162.719757,333.007202 171.607605,318.833130 
	C170.707367,317.996979 169.911072,317.257355 168.921432,316.338135 
	C170.296478,314.151459 171.682755,311.946930 173.433578,309.162659 
	C181.668793,314.703766 189.553894,320.009247 197.736725,325.563232 
M184.301483,328.659180 
	C182.860275,326.696716 181.419052,324.734283 179.536148,322.170349 
	C175.372559,328.755463 172.009598,334.074310 168.661560,339.369537 
	C171.739853,343.058502 174.240189,342.343323 176.691223,338.839264 
	C178.978638,335.569092 181.477081,332.446533 184.301483,328.659180 
z"/>
<path fill="#F6F6F5" opacity="1.000000" stroke="none" 
	d="
M305.678589,329.062317 
	C305.678589,329.062317 305.429779,328.936218 305.366760,328.906372 
	C305.548706,327.382050 305.793732,325.887543 306.135406,323.803253 
	C308.619263,322.262146 311.664429,320.372772 314.983582,318.313385 
	C320.102905,325.088623 322.564423,334.443695 333.423340,335.549194 
	C334.224182,335.402100 334.467438,334.952484 334.710693,334.502869 
	C330.573059,327.742126 326.435394,320.981384 322.024750,313.774536 
	C324.328705,312.356720 326.520203,311.008148 329.138031,309.397186 
	C339.614960,325.976135 349.964630,342.353729 360.586029,359.161316 
	C358.215973,360.695160 356.054504,362.094025 353.672394,363.635681 
	C347.320068,355.859467 345.021606,343.961243 331.382416,343.778137 
	C336.392792,351.802307 341.306213,359.671204 346.507233,368.000671 
	C344.281311,369.448822 342.120361,370.854736 339.525940,372.542633 
	C334.355194,364.402740 329.305908,356.468597 324.272156,348.524658 
	C320.892609,343.191345 317.655273,337.760834 314.063690,332.575073 
	C313.366821,331.568878 311.327087,331.492737 309.477661,331.018005 
	C309.048584,331.048370 308.935181,330.940063 308.896301,330.609680 
	C308.329193,329.944977 307.800934,329.610687 307.272644,329.276398 
	C307.272644,329.276398 307.165314,329.169556 307.116272,328.644989 
	C306.604340,328.434387 306.141449,328.748352 305.678589,329.062317 
z"/>
<path fill="#F4E8DE" opacity="1.000000" stroke="none" 
	d="
M177.179062,176.752457 
	C176.126450,170.465012 173.893585,164.106247 174.268387,157.905075 
	C175.034821,145.224258 187.070740,140.296417 197.504745,147.643814 
	C203.792847,152.071747 207.318619,158.280258 209.676910,166.062622 
	C209.951691,167.135086 210.058395,167.575989 210.041870,168.340286 
	C204.831345,174.732025 200.719559,181.232895 200.303284,189.740784 
	C189.712173,190.106339 182.027374,185.875717 177.179062,176.752457 
M182.280716,151.841934 
	C177.772369,155.524094 176.753326,160.143799 179.216537,166.680954 
	C183.535431,172.533554 190.005005,174.234329 195.192947,170.881012 
	C200.858246,167.219101 202.484406,160.265259 198.961807,154.764359 
	C195.433563,149.254684 189.214645,147.972824 182.280716,151.841934 
z"/>
<path fill="#F3B75D" opacity="1.000000" stroke="none" 
	d="
M209.151566,269.998810 
	C209.151566,269.998810 208.872787,269.858124 208.870071,269.276062 
	C208.624878,266.602020 208.382401,264.510040 208.108032,262.142914 
	C211.602005,262.835938 214.120377,263.335419 216.638748,263.834930 
	C216.638748,263.834930 216.835968,263.742188 216.987259,264.197144 
	C218.805679,265.060394 220.472809,265.468719 222.095200,265.890015 
	C222.050461,265.902924 222.053146,265.809845 222.236633,266.113373 
	C223.326797,266.554321 224.233444,266.691742 225.092072,266.848572 
	C225.044052,266.867950 225.077957,266.770081 225.303116,267.109009 
	C226.876923,267.596283 228.225555,267.744598 229.662384,267.796570 
	C229.750565,267.700256 230.005234,267.758270 230.210236,268.095825 
	C231.125137,268.849640 231.833130,269.624969 232.545227,269.628754 
	C244.876175,269.694458 257.208191,269.714600 269.537933,269.569305 
	C270.600586,269.556824 271.648712,268.311523 272.712860,267.670746 
	C272.722168,267.702637 272.731384,267.650024 273.188477,267.748047 
	C280.359406,266.639130 287.073212,265.432220 294.493835,264.098267 
	C291.536163,270.041931 287.142822,273.952698 281.432526,275.531982 
	C274.079041,277.565704 266.493073,279.163483 258.907074,279.864075 
	C245.073944,281.141632 231.567123,278.699005 218.463425,274.219147 
	C215.253677,273.121826 212.249985,271.421753 209.151566,269.998810 
z"/>
<path fill="#F1E6DC" opacity="1.000000" stroke="none" 
	d="
M322.609314,174.863342 
	C322.646545,175.998276 322.322418,176.984283 321.651367,178.466003 
	C320.345367,181.194305 319.877136,184.889084 318.341614,185.404526 
	C311.945129,187.551758 305.227386,188.742004 298.650208,190.111603 
	C298.672943,189.939987 298.480804,189.651932 298.489990,189.287704 
	C297.984161,187.601318 297.469147,186.279160 296.927307,184.643860 
	C296.402802,183.422638 295.905121,182.514572 295.294128,181.246857 
	C294.461243,176.933212 293.741699,172.979202 292.997498,169.015427 
	C292.972839,169.005676 292.968872,169.057922 292.968872,169.057922 
	C293.778625,168.034714 295.154968,167.088837 295.306885,165.975861 
	C296.353180,158.309601 306.750427,151.153198 313.437683,154.770355 
	C316.917236,156.652466 319.093811,161.596405 320.960419,165.578476 
	C322.208099,168.240128 321.874146,171.643173 322.609314,174.863342 
M314.629547,168.385239 
	C313.146606,163.972702 310.151978,162.298950 305.735931,163.829987 
	C302.314880,165.016068 301.887543,168.010971 303.023010,170.770233 
	C303.713745,172.448761 305.802490,173.551987 307.263214,174.913635 
	C307.959229,174.096024 308.655243,173.278397 309.351257,172.460785 
	C308.191193,171.906067 306.499084,171.635147 306.011810,170.721619 
	C305.458557,169.684296 305.466888,167.493042 306.174835,166.861694 
	C306.991852,166.133102 309.958435,166.207596 310.063141,166.540329 
	C310.950134,169.358582 312.246948,172.485001 311.709747,175.177582 
	C311.270752,177.378113 308.676849,179.373138 306.613739,180.876770 
	C306.056610,181.282806 303.825592,179.733719 302.609283,178.770798 
	C301.829529,178.153488 301.500793,176.966461 300.205750,174.693954 
	C299.921082,177.097321 299.350250,178.543259 299.771790,178.943192 
	C301.563995,180.643494 303.584961,183.124481 305.646454,183.247879 
	C307.969482,183.386902 311.606812,181.906631 312.560638,180.047302 
	C314.189606,176.871902 314.172089,172.851868 314.629547,168.385239 
z"/>
<path fill="#DA9332" opacity="1.000000" stroke="none" 
	d="
M238.949417,152.064362 
	C240.412079,151.602036 241.977890,151.337875 243.318054,150.640213 
	C247.334442,148.549408 251.262665,146.289246 256.007935,144.004730 
	C259.439728,143.691559 262.088837,143.468826 264.794495,143.269974 
	C264.851013,143.293869 264.955841,143.230133 265.194641,143.446075 
	C266.287476,143.788925 267.141479,143.915848 268.311523,144.207153 
	C273.498047,147.237320 278.368561,150.103149 283.563477,153.095657 
	C285.274902,156.058350 286.661987,158.894348 287.953369,162.115875 
	C287.857666,165.480621 287.857666,168.459869 287.857666,171.967163 
	C286.051514,171.089340 284.916931,170.537888 283.725769,169.642517 
	C282.986237,164.798111 282.533875,160.199600 278.182037,157.185532 
	C279.220947,160.649918 280.259857,164.114304 281.298767,167.578690 
	C280.765320,167.940796 280.231903,168.302917 279.698456,168.665039 
	C278.287109,167.101837 276.957520,165.453323 275.441345,163.999481 
	C273.927277,162.547668 272.226379,161.290756 270.601746,159.967773 
	C270.376923,159.874924 270.177307,159.730133 270.437439,159.283203 
	C266.809753,153.009079 258.062347,153.006989 251.330139,159.178925 
	C250.815018,159.713318 250.413269,160.077759 249.734497,160.593170 
	C247.262283,164.439590 245.631760,162.834839 244.360779,159.946991 
	C246.881119,157.017899 249.154343,154.316681 251.427567,151.615463 
	C246.683044,152.759598 243.090515,155.023727 241.805481,160.145538 
	C240.310181,160.208298 239.089523,160.111526 237.823257,160.011124 
	C237.823257,158.384567 237.823257,157.121689 237.858078,155.893127 
	C237.892899,155.927429 237.796600,155.944366 238.321411,155.894318 
	C238.869431,154.715302 238.892639,153.586319 238.877411,152.397125 
	C238.838974,152.336914 238.949417,152.064362 238.949417,152.064362 
M255.168869,150.606384 
	C261.490997,150.919739 267.813141,151.233093 274.246124,151.551956 
	C267.796967,147.095062 260.897675,146.195862 252.624634,149.533096 
	C252.449051,150.127045 252.273468,150.721008 252.097870,151.314957 
	C252.847595,150.998917 253.597321,150.682877 255.168869,150.606384 
z"/>
<path fill="#EFEFEE" opacity="1.000000" stroke="none" 
	d="
M257.946259,298.194153 
	C258.660156,297.116119 259.374054,296.038086 260.682739,294.061951 
	C263.668030,294.061951 267.751923,294.061951 272.251038,294.061951 
	C274.123535,290.455078 275.471130,290.925995 281.023743,298.520447 
	C281.228027,296.136322 280.963409,294.099518 281.674561,292.495331 
	C282.278320,291.133301 284.008301,290.270538 286.071533,288.455231 
	C286.071533,298.301849 286.071533,306.611877 286.071533,315.519409 
	C285.598419,315.626373 284.229553,315.935791 283.487915,316.103424 
	C280.917145,310.466034 278.554749,305.285553 275.812012,299.493835 
	C275.018005,298.513611 274.604401,298.144562 274.190765,297.775543 
	C274.239136,299.024261 274.287476,300.272949 274.335846,301.521667 
	C274.458099,309.808899 273.955261,310.602051 266.891388,313.025848 
	C266.891388,314.743835 266.891388,316.530914 266.891388,318.639893 
	C265.464813,318.870789 264.075958,319.095612 262.648682,319.326599 
	C262.321808,318.663666 261.980804,318.258820 261.926788,317.818756 
	C261.278015,312.532013 260.722046,307.233276 260.009796,301.955444 
	C259.875763,300.962036 259.163208,300.046692 258.323364,299.185303 
	C257.934814,298.914948 257.940552,298.554535 257.946259,298.194153 
M265.133698,302.303711 
	C265.453217,304.178131 265.772736,306.052551 266.135925,308.183258 
	C271.036438,306.922577 268.828583,303.494446 268.696442,301.074310 
	C268.638580,300.013794 267.159302,299.030945 266.325439,298.012817 
	C265.887299,299.155548 265.449127,300.298279 265.133698,302.303711 
z"/>
<path fill="#EEE3D9" opacity="1.000000" stroke="none" 
	d="
M288.049042,161.730347 
	C286.661987,158.894348 285.274902,156.058350 283.537048,152.693268 
	C282.419159,148.423065 281.652069,144.681931 280.884979,140.940811 
	C280.884979,140.940811 280.968018,140.939163 281.226501,140.804184 
	C282.068085,140.152878 282.651215,139.636536 283.234344,139.120209 
	C283.691895,138.947922 284.450073,138.888062 284.562744,138.586761 
	C286.968353,132.155792 292.432739,133.806885 297.221527,133.802704 
	C298.110931,133.801926 299.607086,134.136917 299.795746,134.676315 
	C301.496490,139.538910 308.144470,142.213898 306.061676,148.753403 
	C305.887299,149.300842 306.255310,150.021011 306.243378,149.955185 
	C303.834991,151.773804 301.759796,153.340820 299.402710,154.530762 
	C298.721893,150.771286 298.954620,147.115219 297.657867,144.121689 
	C297.007843,142.621078 293.521454,141.591721 291.411713,141.734665 
	C289.885773,141.838074 288.007812,143.993057 287.248047,145.668915 
	C286.721130,146.831192 287.829010,148.734619 288.120758,149.949890 
	C289.596436,147.560898 290.354309,144.722656 291.790619,144.323059 
	C295.500763,143.290833 296.563965,146.301788 296.805756,149.351349 
	C296.921692,150.813675 296.378510,152.339401 296.571625,153.777618 
	C296.628601,154.201782 298.182068,154.425003 299.049744,154.740311 
	C298.883942,155.335297 298.895599,156.287323 298.525452,156.471344 
	C293.554962,158.942490 292.665619,163.454575 292.695923,168.690155 
	C292.968872,169.057922 292.972839,169.005676 292.763550,168.790741 
	C292.036346,168.952332 291.518463,169.328827 290.693909,169.928253 
	C289.776459,167.084641 288.912750,164.407501 288.049042,161.730347 
z"/>
<path fill="#EEE3D9" opacity="1.000000" stroke="none" 
	d="
M239.254364,151.628647 
	C238.949417,152.064362 238.838974,152.336914 238.510239,152.641907 
	C238.053207,153.946060 237.924911,154.945221 237.796600,155.944366 
	C237.796600,155.944366 237.892899,155.927429 237.569794,155.601562 
	C236.496521,156.571198 235.746353,157.866714 234.570496,159.210693 
	C227.207840,159.366486 220.569901,160.476135 214.640594,165.080322 
	C213.564209,165.443893 212.793716,165.713654 212.015411,165.713196 
	C211.907944,165.292816 211.808273,165.142654 211.708603,164.992477 
	C210.853760,162.508865 210.216797,159.922760 209.105133,157.559967 
	C204.977554,148.786926 209.466171,135.623260 218.207245,131.250061 
	C223.643341,128.530380 230.573532,130.001678 234.667984,135.368073 
	C237.276672,138.787155 239.094513,142.809647 241.478500,146.171188 
	C241.690033,145.780807 241.629547,145.757599 241.629547,145.757599 
	C240.939484,147.569382 240.249405,149.381165 239.254364,151.628647 
M213.096725,150.665405 
	C216.895248,158.048981 223.041092,160.523148 229.306946,157.191254 
	C235.157593,154.080154 237.251801,147.076385 234.029770,141.396439 
	C230.709351,135.543045 223.999008,134.067841 217.089951,138.054214 
	C213.193863,141.168808 211.769348,145.098068 213.096725,150.665405 
z"/>
<path fill="#EEE3D9" opacity="1.000000" stroke="none" 
	d="
M241.717941,145.797241 
	C241.871353,145.164185 242.194031,144.482391 242.093613,143.869965 
	C239.248810,126.518852 236.288589,109.185913 233.620239,91.808083 
	C233.408524,90.429237 235.171677,88.747154 236.017044,87.205994 
	C237.255447,88.506355 239.367752,89.668488 239.598663,91.128220 
	C242.248962,107.882805 244.659485,124.676147 247.019775,141.475204 
	C247.571579,145.402481 245.764603,146.840515 242.038498,145.631775 
	C241.629547,145.757599 241.690033,145.780807 241.717941,145.797241 
z"/>
<path fill="#EFB760" opacity="1.000000" stroke="none" 
	d="
M209.254623,270.315369 
	C212.249985,271.421753 215.253677,273.121826 218.463425,274.219147 
	C231.567123,278.699005 245.073944,281.141632 258.907074,279.864075 
	C266.493073,279.163483 274.079041,277.565704 281.432526,275.531982 
	C287.142822,273.952698 291.536163,270.041931 294.493835,264.098267 
	C287.073212,265.432220 280.359406,266.639130 273.526672,267.541870 
	C274.327484,266.918671 275.247192,266.599640 276.166931,266.280609 
	C276.095337,265.940491 276.023773,265.600403 275.952209,265.260284 
	C263.227509,265.858032 250.502808,266.455780 237.778091,267.053528 
	C237.792313,267.522888 237.806534,267.992218 237.820755,268.461578 
	C249.460098,269.906860 261.087158,269.556335 272.703552,267.638855 
	C271.648712,268.311523 270.600586,269.556824 269.537933,269.569305 
	C257.208191,269.714600 244.876175,269.694458 232.545227,269.628754 
	C231.833130,269.624969 231.125137,268.849640 230.595505,268.094421 
	C232.322571,267.384644 233.869354,267.013794 235.416122,266.642975 
	C235.303696,266.290771 235.191269,265.938599 235.078827,265.586395 
	C233.504517,265.187805 231.930206,264.789185 230.355896,264.390564 
	C238.471222,264.594910 246.594757,265.125153 254.699829,264.921509 
	C264.967529,264.663544 275.251495,264.053253 284.860870,259.669281 
	C286.152130,259.080139 287.771240,259.209778 289.654053,259.029724 
	C286.719482,260.618988 283.369446,262.185120 280.019379,263.751221 
	C280.247040,264.354401 280.474731,264.957550 280.702393,265.560699 
	C285.447479,263.849121 290.192566,262.137543 294.924347,260.430756 
	C296.890839,266.028931 295.759979,270.654694 290.042603,272.940216 
	C281.944885,276.177277 273.474213,278.815094 264.925659,280.518402 
	C249.037582,283.684113 233.453613,281.035004 218.319824,275.816681 
	C215.117294,274.712372 212.334091,272.391968 209.254623,270.315369 
z"/>
<path fill="#EEE3D9" opacity="1.000000" stroke="none" 
	d="
M254.822372,141.886047 
	C253.381546,142.181839 251.940735,142.477631 249.999573,142.876144 
	C250.983505,136.003021 251.935425,129.314453 252.899567,122.627647 
	C254.372452,112.412514 255.717941,102.175125 257.474365,92.008835 
	C257.745300,90.440735 259.919739,89.201508 261.213867,87.810188 
	C261.995758,89.536873 263.634338,91.376556 263.423859,92.972351 
	C261.749084,105.669609 259.723419,118.320572 257.634521,131.549515 
	C257.284607,132.425583 257.307343,132.722443 257.531921,133.003876 
	C257.389862,133.746185 257.247803,134.488495 256.977783,135.938492 
	C256.174042,138.392792 255.498215,140.139404 254.822372,141.886047 
z"/>
<path fill="#EFEFEE" opacity="1.000000" stroke="none" 
	d="
M228.905777,300.196106 
	C227.550964,306.074005 226.249756,311.549316 224.878220,317.320526 
	C223.215759,316.988342 221.824905,316.710419 220.044113,316.354584 
	C220.766052,312.834381 221.422836,309.631958 222.074677,306.453613 
	C219.001572,305.526031 219.001572,305.526031 216.056488,315.196716 
	C214.750595,315.016266 213.372986,314.825897 211.360687,314.547821 
	C213.260925,306.160614 215.077667,298.141876 216.966873,289.803345 
	C218.694946,290.147034 220.084457,290.423401 221.795731,290.763763 
	C221.138382,294.137909 220.547043,297.173309 219.958832,300.192627 
	C222.930466,300.861877 222.930466,300.861877 225.951294,291.872803 
	C227.279831,292.125732 228.659912,292.388458 230.419464,292.723419 
	C229.885712,295.307922 229.422546,297.550690 228.905777,300.196106 
z"/>
<path fill="#EFEFEE" opacity="1.000000" stroke="none" 
	d="
M234.984222,294.961090 
	C236.547455,294.116638 238.010315,293.642303 239.911438,293.025848 
	C240.805038,302.273743 241.598694,310.487274 242.392349,318.700836 
	C242.013229,319.108490 241.634109,319.516144 241.254990,319.923767 
	C239.910889,318.766846 238.712357,317.319305 237.174576,316.549042 
	C236.035049,315.978241 234.357254,315.939850 233.094925,316.292755 
	C231.489731,316.741516 230.062012,317.825073 228.557785,318.634949 
	C228.275909,318.222748 227.994019,317.810547 227.712128,317.398346 
	C230.102707,310.042633 232.493271,302.686890 234.984222,294.961090 
z"/>
<path fill="#F5F4F4" opacity="1.000000" stroke="none" 
	d="
M257.912292,297.826843 
	C257.940552,298.554535 257.934814,298.914948 257.936951,299.545563 
	C257.969299,301.312378 257.900513,302.817291 258.033661,304.304138 
	C258.791809,312.771179 256.344696,312.310516 250.333633,313.816467 
	C250.209808,315.524353 250.081146,317.298981 249.932037,319.355591 
	C248.389297,319.355591 247.004730,319.355591 245.341782,319.355591 
	C245.341782,311.042603 245.341782,302.958282 245.341782,294.424347 
	C249.830078,294.287170 254.527832,292.615051 257.912292,297.826843 
M250.088913,306.086823 
	C250.824097,306.935059 251.559280,307.783325 252.294434,308.631561 
	C252.854126,306.212341 253.750092,303.801239 253.808807,301.369934 
	C253.832458,300.390686 252.021500,299.367126 251.045502,298.363770 
	C250.716492,298.666656 250.387466,298.969543 250.058456,299.272430 
	C250.058456,301.247772 250.058456,303.223114 250.088913,306.086823 
z"/>
<path fill="#EFB760" opacity="1.000000" stroke="none" 
	d="
M188.430206,197.769226 
	C181.917053,200.100876 177.628632,195.172028 171.464935,192.006546 
	C172.726532,198.237183 173.395355,203.549286 174.939102,208.593658 
	C176.452393,213.538483 178.962982,218.170044 180.813217,223.023987 
	C181.498932,224.822845 181.551666,226.862961 181.832336,229.237778 
	C174.538269,217.985657 171.773727,204.931580 170.301086,191.510025 
	C170.270889,191.234772 171.690399,190.800446 172.744598,190.236252 
	C173.055618,190.032181 173.015915,190.012543 172.919434,190.369568 
	C177.883347,192.807648 182.943741,194.888702 188.116638,197.166443 
	C188.229141,197.363129 188.430206,197.769226 188.430206,197.769226 
z"/>
<path fill="#DA9332" opacity="1.000000" stroke="none" 
	d="
M258.987122,137.966675 
	C265.566040,135.654922 271.348297,138.380402 277.513672,141.372330 
	C277.754944,142.946243 277.654755,143.990479 277.591980,144.644730 
	C272.864288,143.408493 268.448273,142.253754 263.628479,141.053833 
	C261.238007,140.794479 258.647614,141.421280 258.987122,137.966675 
z"/>
<path fill="#45341F" opacity="1.000000" stroke="none" 
	d="
M177.093994,177.087708 
	C182.027374,185.875717 189.712173,190.106339 200.376160,190.079895 
	C199.905334,191.088196 198.999420,191.965271 198.093506,192.842331 
	C188.786438,191.754761 180.507889,188.932724 175.967133,179.397888 
	C176.289352,178.508865 176.649155,177.965912 177.093994,177.087708 
z"/>
<path fill="#211D19" opacity="1.000000" stroke="none" 
	d="
M264.032257,141.099014 
	C268.448273,142.253754 272.864288,143.408493 277.591980,144.644730 
	C277.654755,143.990479 277.754944,142.946243 277.823303,141.506409 
	C278.564423,141.049149 279.337402,140.987473 280.497681,140.933304 
	C281.652069,144.681931 282.419159,148.423065 283.212677,152.566574 
	C278.368561,150.103149 273.498047,147.237320 268.097198,143.945618 
	C266.696533,143.423187 265.826172,143.326660 264.955841,143.230133 
	C264.955841,143.230133 264.851013,143.293869 264.781067,142.982208 
	C264.484863,142.146713 264.258545,141.622864 264.032257,141.099014 
z"/>
<path fill="#45341F" opacity="1.000000" stroke="none" 
	d="
M230.118195,264.391144 
	C231.930206,264.789185 233.504517,265.187805 235.078827,265.586395 
	C235.191269,265.938599 235.303696,266.290771 235.416122,266.642975 
	C233.869354,267.013794 232.322571,267.384644 230.390503,267.756897 
	C230.005234,267.758270 229.750565,267.700256 229.359558,267.532501 
	C227.671692,267.166504 226.374817,266.968292 225.077957,266.770081 
	C225.077957,266.770081 225.044052,266.867950 224.882797,266.582092 
	C223.832077,266.134094 222.942612,265.971985 222.053146,265.809845 
	C222.053146,265.809845 222.050461,265.902924 221.895020,265.646790 
	C220.823868,264.944122 219.908157,264.497589 218.992462,264.051056 
	C219.251556,263.572693 219.510620,263.094299 220.198547,262.341736 
	C221.071045,262.070587 221.514679,262.073578 221.958328,262.076599 
	C221.958328,262.076599 221.994827,262.006592 222.219330,262.292053 
	C224.631607,263.058502 226.819366,263.539520 229.007126,264.020538 
	C229.269577,264.211761 229.560699,264.335480 230.118195,264.391144 
z"/>
<path fill="#EFB760" opacity="1.000000" stroke="none" 
	d="
M290.401245,259.057922 
	C296.922058,254.507935 303.812378,249.945480 311.082336,245.422974 
	C304.564880,249.990433 297.667847,254.517960 290.401245,259.057922 
z"/>
<path fill="#45341F" opacity="1.000000" stroke="none" 
	d="
M263.628479,141.053833 
	C264.258545,141.622864 264.484863,142.146713 264.724548,142.958313 
	C262.088837,143.468826 259.439728,143.691559 256.367249,143.897736 
	C255.743393,143.282944 255.542877,142.684723 255.082367,141.986267 
	C255.498215,140.139404 256.174042,138.392792 257.000732,136.317947 
	C257.596252,136.569153 258.040924,137.148575 258.736328,137.847336 
	C258.647614,141.421280 261.238007,140.794479 263.628479,141.053833 
z"/>
<path fill="#EFB760" opacity="1.000000" stroke="none" 
	d="
M193.015640,245.373642 
	C198.927155,244.715134 200.131088,250.745422 203.940536,253.705826 
	C200.348328,251.268326 196.731644,248.480621 193.015640,245.373642 
z"/>
<path fill="#EFB760" opacity="1.000000" stroke="none" 
	d="
M190.006226,236.990707 
	C190.995544,239.438538 191.984863,241.886368 192.958740,244.708466 
	C190.326462,241.946899 187.709595,238.811081 185.026855,235.334503 
	C186.391754,235.329483 187.822525,235.665222 189.626709,236.252777 
	C190.000107,236.504593 190.006226,236.990707 190.006226,236.990707 
z"/>
<path fill="#EFB760" opacity="1.000000" stroke="none" 
	d="
M216.375427,263.558350 
	C214.120377,263.335419 211.602005,262.835938 208.108032,262.142914 
	C208.382401,264.510040 208.624878,266.602020 208.855438,269.120605 
	C207.992935,266.502045 207.142334,263.456879 206.291748,260.411743 
	C206.770630,260.153778 207.249496,259.895844 207.728378,259.637909 
	C210.522949,260.852509 213.317535,262.067139 216.375427,263.558350 
z"/>
<path fill="#EFB760" opacity="1.000000" stroke="none" 
	d="
M221.917664,261.727051 
	C221.514679,262.073578 221.071045,262.070587 220.294983,262.086456 
	C217.106216,260.925385 214.249878,259.745422 211.175049,258.296326 
	C212.736786,258.250305 214.516998,258.473480 216.820831,259.090759 
	C217.893600,259.654053 218.442749,259.823212 218.991913,259.992401 
	C219.953613,260.454132 220.915314,260.915833 221.917664,261.727051 
z"/>
<path fill="#F5F4F4" opacity="1.000000" stroke="none" 
	d="
M287.726562,335.537750 
	C288.054932,337.554230 288.034180,339.836548 288.004639,342.562073 
	C287.995850,343.005219 287.964447,343.034760 287.964447,343.034760 
	C287.324066,340.538879 286.683716,338.042999 286.080292,335.088684 
	C286.537323,335.021362 286.957397,335.412476 287.726562,335.537750 
z"/>
<path fill="#EFB760" opacity="1.000000" stroke="none" 
	d="
M204.130402,254.319275 
	C206.984985,253.592026 209.438049,254.388184 210.927811,257.682983 
	C208.759796,256.891388 206.539474,255.744232 204.130402,254.319275 
z"/>
<path fill="#EFB760" opacity="1.000000" stroke="none" 
	d="
M181.948593,230.341644 
	C182.892014,231.279861 183.879745,232.564285 184.831375,234.245850 
	C183.861145,233.324600 182.927017,232.006226 181.948593,230.341644 
z"/>
<path fill="#EFB760" opacity="1.000000" stroke="none" 
	d="
M218.657257,264.036011 
	C219.908157,264.497589 220.823868,264.944122 221.939758,265.633850 
	C220.472809,265.468719 218.805679,265.060394 217.066788,264.271606 
	C217.437363,263.934418 217.879715,263.977692 218.657257,264.036011 
z"/>
<path fill="#F5F4F4" opacity="1.000000" stroke="none" 
	d="
M289.241638,349.852051 
	C289.310425,349.329834 289.622864,348.867157 289.935303,348.404480 
	C290.092896,348.836884 290.250519,349.269318 290.192749,349.855591 
	C289.813354,349.976837 289.649353,349.944244 289.241638,349.852051 
z"/>
<path fill="#211D19" opacity="1.000000" stroke="none" 
	d="
M211.479950,165.111008 
	C211.808273,165.142654 211.907944,165.292816 211.908569,165.974152 
	C211.261398,167.009186 210.713242,167.513046 210.165100,168.016891 
	C210.058395,167.575989 209.951691,167.135086 209.890244,166.356628 
	C210.374084,165.755875 210.812683,165.492706 211.479950,165.111008 
z"/>
<path fill="#EFB760" opacity="1.000000" stroke="none" 
	d="
M311.811157,245.363892 
	C311.939972,244.752609 312.323242,244.041306 313.074219,243.458649 
	C312.983185,244.146149 312.524384,244.705017 311.811157,245.363892 
z"/>
<path fill="#211D19" opacity="1.000000" stroke="none" 
	d="
M282.895294,139.088989 
	C282.651215,139.636536 282.068085,140.152878 281.205811,140.768188 
	C281.469818,140.264053 282.013031,139.660919 282.895294,139.088989 
z"/>
<path fill="#F5F4F4" opacity="1.000000" stroke="none" 
	d="
M286.046417,332.713257 
	C285.734039,332.937256 285.486481,332.802795 285.151672,332.425110 
	C285.374969,332.310211 285.723877,332.367859 286.046417,332.713257 
z"/>
<path fill="#45341F" opacity="1.000000" stroke="none" 
	d="
M257.717651,132.855072 
	C257.307343,132.722443 257.284607,132.425583 257.641785,131.959290 
	C258.042694,132.087601 258.070496,132.387924 257.717651,132.855072 
z"/>
<path fill="#171107" opacity="1.000000" stroke="none" 
	d="
M188.800446,197.762482 
	C188.430206,197.769226 188.229141,197.363129 187.991302,196.911957 
	C187.504349,195.957123 187.255234,195.453476 187.006134,194.949829 
	C207.191483,199.126846 227.505493,201.919235 248.193893,202.050125 
	C269.315216,202.183746 290.326965,201.479187 311.564331,197.821091 
	C311.993073,198.769104 311.976013,199.324371 311.958984,199.879639 
	C305.246704,200.947861 298.534454,202.016098 291.402527,203.187836 
	C290.442749,203.288834 289.902618,203.286316 288.660461,203.360840 
	C278.322235,203.966171 268.691711,204.767853 259.048706,204.966537 
	C238.198608,205.396103 217.516907,203.414902 196.979095,199.861115 
	C194.376297,199.159317 191.773499,198.457535 188.800446,197.762482 
z"/>
<path fill="#090502" opacity="1.000000" stroke="none" 
	d="
M277.589783,220.679382 
	C279.543060,225.609161 279.531494,230.071915 276.639221,234.243973 
	C273.482391,238.797729 266.645721,238.968964 264.388794,233.990005 
	C262.817871,230.524445 262.551453,226.142685 262.843628,222.256042 
	C263.095978,218.899078 265.584778,216.290588 269.393768,215.824493 
	C273.141235,215.365952 275.781311,216.946732 277.589783,220.679382 
z"/>
<path fill="#090502" opacity="1.000000" stroke="none" 
	d="
M225.981277,220.145569 
	C229.612030,215.612640 233.298279,214.599304 236.837662,216.867630 
	C240.534409,219.236755 242.607407,226.888550 240.555496,231.329681 
	C238.979294,234.741226 236.911118,237.851410 232.464127,237.539993 
	C227.921005,237.221817 225.500015,234.035187 224.884491,230.139450 
	C224.396088,227.048187 225.435135,223.715561 225.981277,220.145569 
z"/>
<path fill="#090502" opacity="1.000000" stroke="none" 
	d="
M259.042114,242.961060 
	C259.117065,247.502762 259.189301,252.042694 254.459137,253.311523 
	C251.857681,254.009338 247.583344,253.524963 246.017639,251.799835 
	C243.873154,249.436935 243.586090,245.388290 242.502960,242.062149 
	C242.890091,241.468185 243.277206,240.874237 243.664337,240.280273 
	C248.801819,241.020721 253.939301,241.761169 259.042114,242.961060 
z"/>
<path fill="#EFB760" opacity="1.000000" stroke="none" 
	d="
M197.152588,200.209244 
	C217.516907,203.414902 238.198608,205.396103 259.048706,204.966537 
	C268.691711,204.767853 278.322235,203.966171 288.416504,203.482712 
	C287.468018,204.349777 286.067444,205.875748 284.653961,205.887756 
	C266.049347,206.045670 247.442123,206.085922 228.837296,205.938187 
	C221.982025,205.883743 215.072479,205.679367 208.301544,204.730759 
	C204.522339,204.201324 200.976883,202.003418 197.152588,200.209244 
z"/>
<path fill="#EFB760" opacity="1.000000" stroke="none" 
	d="
M228.821747,263.687988 
	C226.819366,263.539520 224.631607,263.058502 222.186523,262.313965 
	C224.164917,262.485443 226.400635,262.920441 228.821747,263.687988 
z"/>
<path fill="#F3B75D" opacity="1.000000" stroke="none" 
	d="
M218.960297,259.704407 
	C218.442749,259.823212 217.893600,259.654053 217.173096,259.246460 
	C217.644058,259.144226 218.286377,259.280334 218.960297,259.704407 
z"/>
<path fill="#F3B75D" opacity="1.000000" stroke="none" 
	d="
M190.164658,236.901703 
	C190.006226,236.990707 190.000107,236.504593 189.997925,236.261749 
	C190.104843,236.283508 190.213959,236.548111 190.164658,236.901703 
z"/>
<path fill="#0C0C0B" opacity="1.000000" stroke="none" 
	d="
M295.973633,339.001526 
	C297.264771,337.637299 298.491882,336.170349 299.923279,335.932465 
	C300.747925,335.795410 302.371613,337.459869 302.835876,338.630615 
	C306.927612,348.948273 310.963135,359.293579 314.660736,369.755981 
	C315.167297,371.189392 313.726868,373.310913 313.187897,375.113831 
	C311.534332,374.242279 308.906616,373.758636 308.380707,372.438019 
	C304.032104,361.517761 300.072601,350.442505 295.973633,339.001526 
z"/>
<path fill="#0C0C0B" opacity="1.000000" stroke="none" 
	d="
M192.560989,364.660339 
	C197.569580,355.861420 202.388977,347.394531 207.332916,339.000977 
	C207.691132,338.392792 208.955093,338.318146 210.914917,337.567749 
	C207.220490,347.786682 203.877747,357.032837 200.375519,366.720062 
	C197.545471,366.113220 194.973892,365.561768 192.560989,364.660339 
z"/>
<path fill="#F5F4F4" opacity="1.000000" stroke="none" 
	d="
M288.013214,342.992615 
	C288.650818,343.986145 289.271027,344.992340 289.891266,345.998505 
	C289.493256,346.154541 289.095245,346.310547 288.697235,346.466583 
	C288.459900,345.554169 288.222534,344.641785 287.974823,343.382080 
	C287.964447,343.034760 287.995850,343.005219 288.013214,342.992615 
z"/>
<path fill="#F5F4F4" opacity="1.000000" stroke="none" 
	d="
M307.229675,329.546021 
	C307.800934,329.610687 308.329193,329.944977 308.841064,330.554016 
	C308.278687,330.491058 307.732697,330.153351 307.229675,329.546021 
z"/>
<path fill="#010000" opacity="1.000000" stroke="none" 
	d="
M306.025452,329.117615 
	C306.141449,328.748352 306.604340,328.434387 307.066162,328.588226 
	C306.834167,329.095001 306.603271,329.133942 306.025452,329.117615 
z"/>
<path fill="#231504" opacity="1.000000" stroke="none" 
	d="
M210.041870,168.340286 
	C210.713242,167.513046 211.261398,167.009186 211.916382,166.244370 
	C212.793716,165.713654 213.564209,165.443893 215.060562,165.092194 
	C216.909119,165.018875 218.031784,165.027481 218.964600,165.320862 
	C209.028870,171.494431 203.421997,179.824615 203.024063,191.406784 
	C206.937531,192.817062 207.735977,190.799133 208.264771,187.971603 
	C211.825150,168.934357 234.523788,160.496414 248.332779,172.830200 
	C249.045639,173.466904 250.086441,173.736496 250.784317,174.424255 
	C249.982300,175.217834 249.370514,175.764191 248.538300,176.133514 
	C247.884949,175.624146 247.452026,175.291824 246.838058,174.658569 
	C238.851013,169.097733 230.689682,167.820389 222.243271,172.621674 
	C214.943237,176.771317 211.008545,183.114517 210.515427,192.020981 
	C212.315598,192.277176 213.852722,192.495941 215.636520,192.749802 
	C215.844376,191.040909 216.001724,189.747253 216.386993,188.200302 
	C216.766281,187.291382 216.917664,186.635773 217.152771,185.885635 
	C217.236496,185.791122 217.135071,185.559860 217.382050,185.366135 
	C217.772064,184.787537 217.915100,184.402664 218.027786,184.014526 
	C217.997437,184.011246 218.036697,184.058029 218.269287,183.869873 
	C218.773911,183.150894 219.045929,182.620071 219.551834,181.950470 
	C220.200943,181.225845 220.616165,180.640015 221.271118,179.956955 
	C221.710556,179.584320 221.910248,179.308899 222.413956,178.922531 
	C224.151459,177.832199 225.584946,176.852829 227.335876,175.876129 
	C228.217957,175.628113 228.782578,175.377426 229.513535,175.167313 
	C229.679886,175.207901 229.990189,175.063019 230.325821,175.087494 
	C231.093674,174.993195 231.525879,174.874405 232.304108,174.795990 
	C233.112991,174.809158 233.575882,174.781937 234.407227,174.864929 
	C235.538681,175.057632 236.301682,175.140121 237.153580,175.267181 
	C237.242493,175.311768 237.389908,175.178207 237.635498,175.443878 
	C238.574799,175.857452 239.268509,176.005325 239.957596,176.111237 
	C239.952972,176.069260 239.874374,176.100189 240.064972,176.332092 
	C240.812637,176.766907 241.369705,176.969803 241.933899,177.128235 
	C241.941025,177.083755 241.851852,177.096405 241.963745,177.329987 
	C242.380554,177.709457 242.685471,177.855347 243.122894,178.224060 
	C243.554276,178.615356 243.853149,178.783829 244.294342,179.222321 
	C245.054916,179.335922 245.673172,179.179520 246.475586,178.926727 
	C246.873657,178.629410 246.986099,178.382339 247.247665,177.954468 
	C247.915512,177.439331 248.332779,177.058868 248.922241,176.947876 
	C249.419800,177.485428 249.745209,177.753525 249.962341,178.358185 
	C246.784225,183.258224 244.341492,188.030991 245.262665,194.214676 
	C246.785141,193.516266 248.165176,192.520279 248.540894,191.231476 
	C251.715027,180.343475 259.454895,173.505737 269.548248,172.968307 
	C276.720337,172.586426 288.550201,177.462280 291.559631,189.155945 
	C292.259735,191.876404 293.704773,192.110794 296.063171,191.892242 
	C296.987091,191.281158 297.733948,190.466537 298.480774,189.651917 
	C298.480804,189.651932 298.672943,189.939987 298.507141,190.432281 
	C298.860748,191.859222 299.380188,192.793869 299.899628,193.728516 
	C274.683258,197.686035 249.344070,197.904877 223.967224,195.948074 
	C215.596893,195.302612 207.277802,193.992371 198.514404,192.914215 
	C198.999420,191.965271 199.905334,191.088196 200.738373,189.872025 
	C200.719559,181.232895 204.831345,174.732025 210.041870,168.340286 
M239.129196,188.182999 
	C238.892120,187.928925 238.601501,187.777893 237.789993,187.167358 
	C235.102600,187.353806 232.415207,187.540253 229.289444,187.960419 
	C229.020615,188.180145 228.854431,188.460663 228.211792,189.288940 
	C227.763626,190.634689 227.315460,191.980438 226.679855,193.889008 
	C232.075806,193.889008 236.770172,193.889008 242.340683,193.889008 
	C241.492325,192.085892 240.920822,190.871216 240.151047,189.203781 
	C239.960754,188.916672 239.701263,188.721649 239.129196,188.182999 
M260.237885,187.937592 
	C260.097778,188.261108 259.957672,188.584610 259.925354,188.946747 
	C259.925354,188.946747 259.861755,188.851501 259.270630,189.327164 
	C258.825623,190.789551 258.380646,192.251938 257.723572,194.411240 
	C265.661987,194.006729 272.730011,193.644135 279.798340,193.287582 
	C282.533508,193.149628 283.622375,192.231476 281.453461,189.704178 
	C281.453461,189.704178 281.471954,189.635773 281.419342,189.051376 
	C281.051392,188.615219 280.683411,188.179062 280.225098,187.691635 
	C280.225098,187.691635 280.328491,187.681381 280.176758,187.105927 
	C279.436432,186.486526 278.696106,185.867142 277.671661,184.970657 
	C277.671661,184.970657 277.281830,184.896362 276.910583,184.350876 
	C276.310150,184.092972 275.709717,183.835068 274.442383,183.121292 
	C270.918793,183.616974 267.395172,184.112656 263.307709,184.791656 
	C263.092621,185.099747 262.877563,185.407837 262.823273,185.685028 
	C262.823273,185.685028 262.665344,185.641785 262.151215,185.775513 
	C261.980774,186.070358 261.810364,186.365219 261.979584,187.004288 
	C261.979584,187.004288 261.648529,186.652695 261.141083,186.815842 
	C260.984100,187.122681 260.827087,187.429504 260.772858,187.912033 
	C260.772858,187.912033 260.729462,187.713181 260.237885,187.937592 
M260.988068,183.375488 
	C270.741669,176.856064 279.872925,179.650543 284.900421,190.490311 
	C285.461334,191.699692 287.300568,192.316193 289.442657,193.848251 
	C288.200531,182.504822 279.817444,175.314209 270.171265,175.783386 
	C259.443970,176.305145 251.461166,183.891647 251.312592,195.336029 
	C253.259277,193.779419 254.753967,193.020477 255.608994,191.809784 
	C257.391632,189.285675 258.836121,186.522751 260.988068,183.375488 
M243.587372,184.747971 
	C242.875824,183.272766 242.545410,181.298706 241.384460,180.411713 
	C237.143066,177.171219 232.307983,176.201614 227.428360,178.863495 
	C222.040894,181.802383 218.781494,186.280045 218.573730,193.041000 
	C220.592422,193.201431 222.298630,193.337021 223.846313,193.460022 
	C227.316544,183.160080 232.093857,181.404984 241.154068,186.447220 
	C241.550385,186.667755 242.581238,185.748123 243.587372,184.747971 
z"/>
<path fill="#45341F" opacity="1.000000" stroke="none" 
	d="
M300.294373,193.751312 
	C299.380188,192.793869 298.860748,191.859222 298.484375,190.603912 
	C305.227386,188.742004 311.945129,187.551758 318.341614,185.404526 
	C319.877136,184.889084 320.345367,181.194305 321.680115,178.782669 
	C323.731201,184.522827 322.889008,187.174240 317.482574,189.138199 
	C312.041412,191.114761 306.299316,192.262939 300.294373,193.751312 
z"/>
<path fill="#45341F" opacity="1.000000" stroke="none" 
	d="
M312.357300,199.887329 
	C311.976013,199.324371 311.993073,198.769104 312.006470,197.796692 
	C316.444122,196.439163 320.885468,195.498749 325.326813,194.558350 
	C325.481628,195.279266 325.636475,196.000198 325.791321,196.721115 
	C321.446106,197.779083 317.100861,198.837051 312.357300,199.887329 
z"/>
<path fill="#010000" opacity="1.000000" stroke="none" 
	d="
M186.762939,194.671082 
	C187.255234,195.453476 187.504349,195.957123 187.878784,196.715271 
	C182.943741,194.888702 177.883347,192.807648 172.900162,190.358612 
	C174.311539,190.201111 175.715027,190.216217 176.966354,190.660217 
	C180.186768,191.802887 183.339783,193.135559 186.762939,194.671082 
z"/>
<path fill="#F9BB5B" opacity="1.000000" stroke="none" 
	d="
M336.997559,193.996857 
	C337.085754,193.961258 337.176361,193.928787 337.136536,193.950592 
	C337.006104,194.004852 337.000000,194.000000 336.997559,193.996857 
z"/>
<path fill="#0C0C0B" opacity="1.000000" stroke="none" 
	d="
M184.092072,328.959106 
	C181.477081,332.446533 178.978638,335.569092 176.691223,338.839264 
	C174.240189,342.343323 171.739853,343.058502 168.661560,339.369537 
	C172.009598,334.074310 175.372559,328.755463 179.536148,322.170349 
	C181.419052,324.734283 182.860275,326.696716 184.092072,328.959106 
z"/>
<path fill="#010000" opacity="1.000000" stroke="none" 
	d="
M334.409607,334.726135 
	C334.467438,334.952484 334.224182,335.402100 333.772888,335.658691 
	C333.746033,335.293610 333.927246,335.121521 334.409607,334.726135 
z"/>
<path fill="#45341F" opacity="1.000000" stroke="none" 
	d="
M182.942627,151.462463 
	C189.214645,147.972824 195.433563,149.254684 198.961807,154.764359 
	C202.484406,160.265259 200.858246,167.219101 195.192947,170.881012 
	C190.005005,174.234329 183.535431,172.533554 179.483704,166.291565 
	C180.208862,165.544678 180.666840,165.187195 181.416214,165.028931 
	C182.371811,165.971649 182.942963,166.834427 183.716461,167.437790 
	C186.930939,169.945297 190.992371,170.585083 193.784531,168.053726 
	C196.001526,166.043823 197.575241,162.165009 197.551208,159.130905 
	C197.519958,155.185699 194.117020,152.585007 190.121078,152.327805 
	C187.799133,152.178329 185.387589,153.420776 183.009583,153.607742 
	C182.982742,152.606552 182.962692,152.034500 182.942627,151.462463 
z"/>
<path fill="#211D19" opacity="1.000000" stroke="none" 
	d="
M181.124817,164.829712 
	C180.666840,165.187195 180.208862,165.544678 179.453629,165.953949 
	C176.753326,160.143799 177.772369,155.524094 182.611664,151.652191 
	C182.962692,152.034500 182.982742,152.606552 182.679016,153.812820 
	C181.945099,157.907944 181.534958,161.368835 181.124817,164.829712 
z"/>
<path fill="#EFB760" opacity="1.000000" stroke="none" 
	d="
M225.303116,267.109009 
	C226.374817,266.968292 227.671692,267.166504 229.271378,267.628845 
	C228.225555,267.744598 226.876923,267.596283 225.303116,267.109009 
z"/>
<path fill="#EFB760" opacity="1.000000" stroke="none" 
	d="
M222.236633,266.113373 
	C222.942612,265.971985 223.832077,266.134094 224.930817,266.562683 
	C224.233444,266.691742 223.326797,266.554321 222.236633,266.113373 
z"/>
<path fill="#211D19" opacity="1.000000" stroke="none" 
	d="
M314.737854,168.785919 
	C314.172089,172.851868 314.189606,176.871902 312.560638,180.047302 
	C311.606812,181.906631 307.969482,183.386902 305.646454,183.247879 
	C303.584961,183.124481 301.563995,180.643494 299.771790,178.943192 
	C299.350250,178.543259 299.921082,177.097321 300.205750,174.693954 
	C301.500793,176.966461 301.829529,178.153488 302.609283,178.770798 
	C303.825592,179.733719 306.056610,181.282806 306.613739,180.876770 
	C308.676849,179.373138 311.270752,177.378113 311.709747,175.177582 
	C312.246948,172.485001 310.950134,169.358582 310.063141,166.540329 
	C309.958435,166.207596 306.991852,166.133102 306.174835,166.861694 
	C305.466888,167.493042 305.458557,169.684296 306.011810,170.721619 
	C306.499084,171.635147 308.191193,171.906067 309.351257,172.460785 
	C308.655243,173.278397 307.959229,174.096024 307.263214,174.913635 
	C305.802490,173.551987 303.713745,172.448761 303.023010,170.770233 
	C301.887543,168.010971 302.314880,165.016068 305.735931,163.829987 
	C310.151978,162.298950 313.146606,163.972702 314.737854,168.785919 
z"/>
<path fill="#010000" opacity="1.000000" stroke="none" 
	d="
M287.953369,162.115875 
	C288.912750,164.407501 289.776459,167.084641 290.693909,169.928253 
	C291.518463,169.328827 292.036346,168.952332 292.788208,168.800507 
	C293.741699,172.979202 294.461243,176.933212 294.962067,181.570633 
	C294.522339,182.470230 294.301331,182.686447 293.822571,182.684509 
	C289.905487,178.817291 286.246216,175.168182 282.895996,171.143860 
	C283.397461,170.507919 283.589905,170.247177 283.782318,169.986450 
	C284.916931,170.537888 286.051514,171.089340 287.857666,171.967163 
	C287.857666,168.459869 287.857666,165.480621 287.953369,162.115875 
z"/>
<path fill="#45341F" opacity="1.000000" stroke="none" 
	d="
M298.489990,189.287689 
	C297.733948,190.466537 296.987091,191.281158 296.072327,191.549332 
	C295.956085,190.319901 296.007751,189.636948 296.326904,188.787231 
	C296.366974,187.750000 296.139618,186.879532 295.946106,186.034821 
	C295.979919,186.060608 295.926025,186.126419 296.048889,185.889435 
	C296.432526,185.420624 296.693329,185.188828 296.954102,184.957016 
	C297.469147,186.279160 297.984161,187.601318 298.489990,189.287689 
z"/>
<path fill="#010000" opacity="1.000000" stroke="none" 
	d="
M296.927307,184.643860 
	C296.693329,185.188828 296.432526,185.420624 295.716736,185.823792 
	C294.867950,184.964294 294.474152,183.933472 294.080322,182.902649 
	C294.301331,182.686447 294.522339,182.470230 295.075378,181.930267 
	C295.905121,182.514572 296.402802,183.422638 296.927307,184.643860 
z"/>
<path fill="#E1962F" opacity="1.000000" stroke="none" 
	d="
M250.974548,174.177017 
	C250.086441,173.736496 249.045639,173.466904 248.332779,172.830200 
	C234.523788,160.496414 211.825150,168.934357 208.264771,187.971603 
	C207.735977,190.799133 206.937531,192.817062 203.024063,191.406784 
	C203.421997,179.824615 209.028870,171.494431 219.330658,165.285446 
	C222.918961,164.009796 225.951340,163.054352 229.437241,162.166077 
	C236.649979,163.288895 243.409180,164.344574 250.333725,165.426056 
	C250.272751,164.483078 250.142136,162.462631 250.011505,160.442184 
	C250.413269,160.077759 250.815018,159.713318 251.574020,159.625504 
	C255.613449,158.977493 259.295624,158.052872 262.731628,157.373795 
	C258.661530,159.201263 253.952744,159.462601 252.177963,164.384979 
	C254.883820,167.067078 257.447113,169.050323 261.326721,166.502472 
	C262.132355,165.973389 263.739685,166.665054 264.636536,166.932343 
	C260.753082,168.039841 257.210632,169.009140 254.047867,169.874573 
	C253.045807,171.277374 252.010178,172.727188 250.974548,174.177017 
z"/>
<path fill="#010000" opacity="1.000000" stroke="none" 
	d="
M250.784317,174.424255 
	C252.010178,172.727188 253.045807,171.277374 254.047867,169.874573 
	C257.210632,169.009140 260.753082,168.039841 264.986511,166.964172 
	C266.124756,166.732574 266.572083,166.607361 267.434204,166.549927 
	C269.714386,166.533676 271.579773,166.449661 274.193115,166.331970 
	C272.755585,163.772827 271.681488,161.860626 270.607361,159.948425 
	C272.226379,161.290756 273.927277,162.547668 275.441345,163.999481 
	C276.957520,165.453323 278.287109,167.101837 279.698456,168.665039 
	C280.231903,168.302917 280.765320,167.940796 281.298767,167.578690 
	C280.259857,164.114304 279.220947,160.649918 278.182037,157.185532 
	C282.533875,160.199600 282.986237,164.798111 283.725769,169.642517 
	C283.589905,170.247177 283.397461,170.507919 282.535431,171.032532 
	C269.792053,166.562897 259.216339,168.911957 250.070602,178.021622 
	C249.745209,177.753525 249.419800,177.485428 248.894058,176.855286 
	C248.693710,176.493240 248.758743,176.310547 248.758743,176.310547 
	C249.370514,175.764191 249.982300,175.217834 250.784317,174.424255 
z"/>
<path fill="#010000" opacity="1.000000" stroke="none" 
	d="
M249.734497,160.593170 
	C250.142136,162.462631 250.272751,164.483078 250.333725,165.426056 
	C243.409180,164.344574 236.649979,163.288895 229.646973,161.886078 
	C231.267532,160.746704 233.131882,159.954483 234.996216,159.162247 
	C235.746353,157.866714 236.496521,156.571198 237.534973,155.567245 
	C237.823257,157.121689 237.823257,158.384567 237.823257,160.011124 
	C239.089523,160.111526 240.310181,160.208298 242.033249,160.020660 
	C242.832916,159.438110 243.130157,159.139999 243.427399,158.841873 
	C243.656143,159.286194 243.884888,159.730530 244.113647,160.174850 
	C245.631760,162.834839 247.262283,164.439590 249.734497,160.593170 
z"/>
<path fill="#E1962F" opacity="1.000000" stroke="none" 
	d="
M270.601746,159.967773 
	C271.681488,161.860626 272.755585,163.772827 274.193115,166.331970 
	C271.579773,166.449661 269.714386,166.533676 267.512573,166.265320 
	C268.261169,165.047470 269.346191,164.182007 271.157471,162.737213 
	C268.927185,160.879410 266.967407,159.246948 265.342133,157.590866 
	C267.116852,158.229095 268.557098,158.890945 269.997314,159.552795 
	C270.177307,159.730133 270.376923,159.874924 270.601746,159.967773 
z"/>
<path fill="#010000" opacity="1.000000" stroke="none" 
	d="
M270.437439,159.283203 
	C268.557098,158.890945 267.116852,158.229095 265.036438,157.399460 
	C263.923431,157.197205 263.450623,157.162735 262.977814,157.128265 
	C259.295624,158.052872 255.613449,158.977493 251.687378,159.455536 
	C258.062347,153.006989 266.809753,153.009079 270.437439,159.283203 
z"/>
<path fill="#231504" opacity="1.000000" stroke="none" 
	d="
M244.360779,159.946991 
	C243.884888,159.730530 243.656143,159.286194 243.427399,158.841873 
	C243.130157,159.139999 242.832916,159.438110 242.307892,159.861115 
	C243.090515,155.023727 246.683044,152.759598 251.427567,151.615463 
	C249.154343,154.316681 246.881119,157.017899 244.360779,159.946991 
z"/>
<path fill="#010000" opacity="1.000000" stroke="none" 
	d="
M253.453781,149.363770 
	C260.897675,146.195862 267.796967,147.095062 274.246124,151.551956 
	C267.813141,151.233093 261.490997,150.919739 254.535522,150.235062 
	C253.752716,149.697083 253.603241,149.530426 253.453781,149.363770 
z"/>
<path fill="#010000" opacity="1.000000" stroke="none" 
	d="
M238.321411,155.894318 
	C237.924911,154.945221 238.053207,153.946060 238.548676,152.702133 
	C238.892639,153.586319 238.869431,154.715302 238.321411,155.894318 
z"/>
<path fill="#45341F" opacity="1.000000" stroke="none" 
	d="
M265.194641,143.446075 
	C265.826172,143.326660 266.696533,143.423187 267.781189,143.781250 
	C267.141479,143.915848 266.287476,143.788925 265.194641,143.446075 
z"/>
<path fill="#010000" opacity="1.000000" stroke="none" 
	d="
M254.124603,150.115295 
	C253.597321,150.682877 252.847595,150.998917 252.097870,151.314957 
	C252.273468,150.721008 252.449051,150.127045 253.039215,149.448425 
	C253.603241,149.530426 253.752716,149.697083 254.124603,150.115295 
z"/>
<path fill="#0C0C0B" opacity="1.000000" stroke="none" 
	d="
M265.072327,301.872375 
	C265.449127,300.298279 265.887299,299.155548 266.325439,298.012817 
	C267.159302,299.030945 268.638580,300.013794 268.696442,301.074310 
	C268.828583,303.494446 271.036438,306.922577 266.135925,308.183258 
	C265.772736,306.052551 265.453217,304.178131 265.072327,301.872375 
z"/>
<path fill="#010000" opacity="1.000000" stroke="none" 
	d="
M274.708191,301.051422 
	C274.287476,300.272949 274.239136,299.024261 274.190765,297.775543 
	C274.604401,298.144562 275.018005,298.513611 275.554199,299.211426 
	C275.477997,299.887238 275.279266,300.234192 274.708191,301.051422 
z"/>
<path fill="#211D19" opacity="1.000000" stroke="none" 
	d="
M299.023132,154.770203 
	C298.182068,154.425003 296.628601,154.201782 296.571625,153.777618 
	C296.378510,152.339401 296.921692,150.813675 296.805756,149.351349 
	C296.563965,146.301788 295.500763,143.290833 291.790619,144.323059 
	C290.354309,144.722656 289.596436,147.560898 288.120758,149.949890 
	C287.829010,148.734619 286.721130,146.831192 287.248047,145.668915 
	C288.007812,143.993057 289.885773,141.838074 291.411713,141.734665 
	C293.521454,141.591721 297.007843,142.621078 297.657867,144.121689 
	C298.954620,147.115219 298.721893,150.771286 299.034546,154.508835 
	C298.948242,154.863953 298.996521,154.800079 299.023132,154.770203 
z"/>
<path fill="#45341F" opacity="1.000000" stroke="none" 
	d="
M217.734116,137.813980 
	C223.999008,134.067841 230.709351,135.543045 234.029770,141.396439 
	C237.251801,147.076385 235.157593,154.080154 229.306946,157.191254 
	C223.041092,160.523148 216.895248,158.048981 213.361435,150.198395 
	C214.244553,149.474426 214.862946,149.217468 215.628632,149.307068 
	C217.098267,153.544662 220.106506,156.164963 223.874405,155.623276 
	C226.699615,155.217133 230.342224,153.012360 231.496414,150.594284 
	C232.626678,148.226364 231.967926,144.026108 230.491043,141.610260 
	C227.968887,137.484604 223.452576,138.161560 219.093353,139.083069 
	C218.501816,138.451370 218.117966,138.132675 217.734116,137.813980 
z"/>
<path fill="#211D19" opacity="1.000000" stroke="none" 
	d="
M234.570511,159.210693 
	C233.131882,159.954483 231.267532,160.746704 229.193451,161.818909 
	C225.951340,163.054352 222.918961,164.009796 219.520538,165.000671 
	C218.031784,165.027481 216.909119,165.018875 215.366455,164.998398 
	C220.569901,160.476135 227.207840,159.366486 234.570511,159.210693 
z"/>
<path fill="#231504" opacity="1.000000" stroke="none" 
	d="
M215.481354,148.960510 
	C214.862946,149.217468 214.244553,149.474426 213.396332,149.844391 
	C211.769348,145.098068 213.193863,141.168808 217.412033,137.934097 
	C218.117966,138.132675 218.501816,138.451370 218.861877,139.321960 
	C216.472855,142.442337 213.776077,144.888321 215.481354,148.960510 
z"/>
<path fill="#171107" opacity="1.000000" stroke="none" 
	d="
M272.712860,267.670746 
	C261.087158,269.556335 249.460098,269.906860 237.820755,268.461578 
	C237.806534,267.992218 237.792313,267.522888 237.778091,267.053528 
	C250.502808,266.455780 263.227509,265.858032 275.952209,265.260284 
	C276.023773,265.600403 276.095337,265.940491 276.166931,266.280609 
	C275.247192,266.599640 274.327484,266.918671 273.069580,267.443848 
	C272.731384,267.650024 272.722168,267.702637 272.712860,267.670746 
z"/>
<path fill="#211D19" opacity="1.000000" stroke="none" 
	d="
M250.073685,305.642639 
	C250.058456,303.223114 250.058456,301.247772 250.058456,299.272430 
	C250.387466,298.969543 250.716492,298.666656 251.045502,298.363770 
	C252.021500,299.367126 253.832458,300.390686 253.808807,301.369934 
	C253.750092,303.801239 252.854126,306.212341 252.294449,308.631561 
	C251.559280,307.783325 250.824097,306.935059 250.073685,305.642639 
z"/>
<path fill="#DA9332" opacity="1.000000" stroke="none" 
	d="
M249.962341,178.358185 
	C259.216339,168.911957 269.792053,166.562897 282.226379,171.407730 
	C286.246216,175.168182 289.905487,178.817291 293.822571,182.684509 
	C294.474152,183.933472 294.867950,184.964294 295.593872,186.060776 
	C295.926025,186.126419 295.979919,186.060608 295.776855,186.382324 
	C295.735657,187.454010 295.897552,188.203995 296.059448,188.953979 
	C296.007751,189.636948 295.956085,190.319901 295.895233,191.345795 
	C293.704773,192.110794 292.259735,191.876404 291.559631,189.155945 
	C288.550201,177.462280 276.720337,172.586426 269.548248,172.968307 
	C259.454895,173.505737 251.715027,180.343475 248.540894,191.231476 
	C248.165176,192.520279 246.785141,193.516266 245.262665,194.214676 
	C244.341492,188.030991 246.784225,183.258224 249.962341,178.358185 
z"/>
<path fill="#E1962F" opacity="1.000000" stroke="none" 
	d="
M221.031372,180.054169 
	C220.616165,180.640015 220.200943,181.225845 219.250748,182.068207 
	C218.489410,182.902496 218.263046,183.480255 218.036682,184.058029 
	C218.036697,184.058029 217.997437,184.011246 217.770569,184.197113 
	C217.407486,184.775269 217.271271,185.167557 217.135071,185.559860 
	C217.135071,185.559860 217.236496,185.791122 216.879608,186.106567 
	C216.401505,187.099213 216.280289,187.776398 216.159088,188.453598 
	C216.001724,189.747253 215.844376,191.040909 215.636520,192.749802 
	C213.852722,192.495941 212.315598,192.277176 210.515427,192.020981 
	C211.008545,183.114517 214.943237,176.771317 222.243271,172.621674 
	C230.689682,167.820389 238.851013,169.097733 246.829926,175.049042 
	C247.000931,176.523331 246.999008,177.306213 246.997086,178.089111 
	C246.986099,178.382339 246.873657,178.629410 246.117432,178.914474 
	C245.100754,178.983185 244.626373,178.967743 244.152008,178.952301 
	C243.853149,178.783829 243.554276,178.615356 242.999420,178.000702 
	C242.446228,177.401825 242.149048,177.249115 241.851852,177.096405 
	C241.851852,177.096405 241.941025,177.083755 241.788010,176.846100 
	C241.048126,176.439026 240.461243,176.269608 239.874374,176.100189 
	C239.874374,176.100189 239.952972,176.069260 239.742706,175.809204 
	C238.818268,175.425507 238.104095,175.301865 237.389908,175.178207 
	C237.389908,175.178207 237.242493,175.311768 236.995605,174.996552 
	C235.845413,174.705795 234.942078,174.730255 234.038757,174.754730 
	C233.575882,174.781937 233.112991,174.809158 232.124084,174.616440 
	C231.062088,174.618668 230.526138,174.840836 229.990189,175.063019 
	C229.990189,175.063019 229.679886,175.207901 229.187408,175.142212 
	C228.136093,175.342148 227.577255,175.607788 227.018417,175.873444 
	C225.584946,176.852829 224.151459,177.832199 222.172745,179.019424 
	C221.428802,179.502899 221.230087,179.778534 221.031372,180.054169 
z"/>
<path fill="#DA9332" opacity="1.000000" stroke="none" 
	d="
M260.703796,183.616714 
	C258.836121,186.522751 257.391632,189.285675 255.608994,191.809784 
	C254.753967,193.020477 253.259277,193.779419 251.312592,195.336029 
	C251.461166,183.891647 259.443970,176.305145 270.171265,175.783386 
	C279.817444,175.314209 288.200531,182.504822 289.442657,193.848251 
	C287.300568,192.316193 285.461334,191.699692 284.900421,190.490311 
	C279.872925,179.650543 270.741669,176.856064 260.703796,183.616714 
z"/>
<path fill="#E1962F" opacity="1.000000" stroke="none" 
	d="
M243.451935,185.053772 
	C242.581238,185.748123 241.550385,186.667755 241.154068,186.447220 
	C232.093857,181.404984 227.316544,183.160080 223.846313,193.460022 
	C222.298630,193.337021 220.592422,193.201431 218.573730,193.041000 
	C218.781494,186.280045 222.040894,181.802383 227.428360,178.863495 
	C232.307983,176.201614 237.143066,177.171219 241.384460,180.411713 
	C242.545410,181.298706 242.875824,183.272766 243.451935,185.053772 
z"/>
<path fill="#EC9927" opacity="1.000000" stroke="none" 
	d="
M277.281830,184.896362 
	C277.281830,184.896362 277.671661,184.970657 277.834076,185.458801 
	C278.773834,186.525085 279.551147,187.103241 280.328491,187.681381 
	C280.328491,187.681381 280.225098,187.691635 280.202454,188.057526 
	C280.610504,188.827545 281.041229,189.231659 281.471954,189.635773 
	C281.471954,189.635773 281.453461,189.704178 281.252197,190.116852 
	C275.406006,191.091187 269.768219,191.751511 264.112396,192.164413 
	C261.949280,192.322327 259.678314,191.998474 259.861755,188.851501 
	C259.861755,188.851501 259.925354,188.946747 260.132935,188.827866 
	C260.470123,188.377045 260.599792,188.045120 260.729462,187.713181 
	C260.729462,187.713181 260.772858,187.912033 261.010315,187.785217 
	C261.381378,187.323166 261.514954,186.987930 261.648499,186.652695 
	C261.648529,186.652695 261.979584,187.004288 262.103699,186.821228 
	C262.373657,186.306030 262.519501,185.973907 262.665344,185.641785 
	C262.665344,185.641785 262.823273,185.685028 263.048035,185.654724 
	C263.472382,185.285721 263.671967,184.947021 263.871582,184.608322 
	C267.395172,184.112656 270.918793,183.616974 274.897949,183.684021 
	C275.996307,184.463303 276.639069,184.679825 277.281830,184.896362 
z"/>
<path fill="#DA9332" opacity="1.000000" stroke="none" 
	d="
M259.566193,189.089325 
	C259.678314,191.998474 261.949280,192.322327 264.112396,192.164413 
	C269.768219,191.751511 275.406006,191.091187 281.274841,190.144104 
	C283.622375,192.231476 282.533508,193.149628 279.798340,193.287582 
	C272.730011,193.644135 265.661987,194.006729 257.723572,194.411240 
	C258.380646,192.251938 258.825623,190.789551 259.566193,189.089325 
z"/>
<path fill="#DA9332" opacity="1.000000" stroke="none" 
	d="
M240.349319,189.656555 
	C240.920822,190.871216 241.492325,192.085892 242.340683,193.889008 
	C236.770172,193.889008 232.075806,193.889008 226.679855,193.889008 
	C227.315460,191.980438 227.763626,190.634689 228.580231,189.116455 
	C228.948669,188.943954 229.110794,189.080978 229.093658,189.478683 
	C230.432953,191.557266 237.923080,193.455536 239.410767,192.314896 
	C239.895950,191.942902 239.797714,190.809967 240.062347,189.933228 
	C240.158386,189.841400 240.349319,189.656555 240.349319,189.656555 
z"/>
<path fill="#DA9332" opacity="1.000000" stroke="none" 
	d="
M229.727814,187.726700 
	C232.415207,187.540253 235.102600,187.353806 237.943359,187.536133 
	C238.096725,187.904892 237.938324,188.081909 237.502380,188.050995 
	C234.726929,188.034531 232.387421,188.048996 229.968933,187.978302 
	C229.889923,187.893143 229.727814,187.726700 229.727814,187.726700 
z"/>
<path fill="#DA9332" opacity="1.000000" stroke="none" 
	d="
M280.252625,187.393646 
	C279.551147,187.103241 278.773834,186.525085 277.976135,185.597336 
	C278.696106,185.867142 279.436432,186.486526 280.252625,187.393646 
z"/>
<path fill="#DA9332" opacity="1.000000" stroke="none" 
	d="
M247.247665,177.954468 
	C246.999008,177.306213 247.000931,176.523331 247.010971,175.349976 
	C247.452026,175.291824 247.884949,175.624146 248.538300,176.133514 
	C248.758743,176.310547 248.693710,176.493240 248.721893,176.585815 
	C248.332779,177.058868 247.915512,177.439331 247.247665,177.954468 
z"/>
<path fill="#DA9332" opacity="1.000000" stroke="none" 
	d="
M234.407227,174.864929 
	C234.942078,174.730255 235.845413,174.705795 236.906708,174.951965 
	C236.301682,175.140121 235.538681,175.057632 234.407227,174.864929 
z"/>
<path fill="#DA9332" opacity="1.000000" stroke="none" 
	d="
M227.335876,175.876129 
	C227.577255,175.607788 228.136093,175.342148 229.021057,175.101624 
	C228.782578,175.377426 228.217957,175.628113 227.335876,175.876129 
z"/>
<path fill="#DA9332" opacity="1.000000" stroke="none" 
	d="
M240.064972,176.332092 
	C240.461243,176.269608 241.048126,176.439026 241.780884,176.890564 
	C241.369705,176.969803 240.812637,176.766907 240.064972,176.332092 
z"/>
<path fill="#DA9332" opacity="1.000000" stroke="none" 
	d="
M230.325821,175.087494 
	C230.526138,174.840836 231.062088,174.618668 231.778076,174.576050 
	C231.525879,174.874405 231.093674,174.993195 230.325821,175.087494 
z"/>
<path fill="#DA9332" opacity="1.000000" stroke="none" 
	d="
M277.096191,184.623627 
	C276.639069,184.679825 275.996307,184.463303 275.231415,183.911957 
	C275.709717,183.835068 276.310150,184.092972 277.096191,184.623627 
z"/>
<path fill="#DA9332" opacity="1.000000" stroke="none" 
	d="
M237.635498,175.443878 
	C238.104095,175.301865 238.818268,175.425507 239.747345,175.851181 
	C239.268509,176.005325 238.574799,175.857452 237.635498,175.443878 
z"/>
<path fill="#DA9332" opacity="1.000000" stroke="none" 
	d="
M216.386993,188.200302 
	C216.280289,187.776398 216.401505,187.099213 216.795868,186.201080 
	C216.917664,186.635773 216.766281,187.291382 216.386993,188.200302 
z"/>
<path fill="#DA9332" opacity="1.000000" stroke="none" 
	d="
M244.294342,179.222321 
	C244.626373,178.967743 245.100754,178.983185 245.933289,179.010864 
	C245.673172,179.179520 245.054916,179.335922 244.294342,179.222321 
z"/>
<path fill="#DA9332" opacity="1.000000" stroke="none" 
	d="
M218.269287,183.869873 
	C218.263046,183.480255 218.489410,182.902496 219.016861,182.207001 
	C219.045929,182.620071 218.773911,183.150894 218.269287,183.869873 
z"/>
<path fill="#DA9332" opacity="1.000000" stroke="none" 
	d="
M281.445648,189.343567 
	C281.041229,189.231659 280.610504,188.827545 280.247620,188.083160 
	C280.683411,188.179062 281.051392,188.615219 281.445648,189.343567 
z"/>
<path fill="#DA9332" opacity="1.000000" stroke="none" 
	d="
M263.589661,184.699982 
	C263.671967,184.947021 263.472382,185.285721 262.967621,185.670166 
	C262.877563,185.407837 263.092621,185.099747 263.589661,184.699982 
z"/>
<path fill="#DA9332" opacity="1.000000" stroke="none" 
	d="
M262.408264,185.708649 
	C262.519501,185.973907 262.373657,186.306030 261.933899,186.649124 
	C261.810364,186.365219 261.980774,186.070358 262.408264,185.708649 
z"/>
<path fill="#DA9332" opacity="1.000000" stroke="none" 
	d="
M261.394775,186.734268 
	C261.514954,186.987930 261.381378,187.323166 260.958954,187.697372 
	C260.827087,187.429504 260.984100,187.122681 261.394775,186.734268 
z"/>
<path fill="#DA9332" opacity="1.000000" stroke="none" 
	d="
M228.869766,188.872971 
	C228.854431,188.460663 229.020615,188.180145 229.508636,187.843567 
	C229.727814,187.726700 229.889923,187.893143 229.846863,188.177170 
	C229.612305,188.711960 229.381302,188.918549 229.110794,189.080978 
	C229.110794,189.080978 228.948669,188.943954 228.869766,188.872971 
z"/>
<path fill="#DA9332" opacity="1.000000" stroke="none" 
	d="
M238.177032,187.817383 
	C238.601501,187.777893 238.892120,187.928925 239.149155,188.505127 
	C239.169113,188.827255 238.965088,189.035278 238.757843,188.918488 
	C238.293961,188.606445 238.089874,188.366516 237.938324,188.081909 
	C237.938324,188.081909 238.096725,187.904892 238.177032,187.817383 
z"/>
<path fill="#DA9332" opacity="1.000000" stroke="none" 
	d="
M260.483673,187.825378 
	C260.599792,188.045120 260.470123,188.377045 260.079010,188.808548 
	C259.957672,188.584610 260.097778,188.261108 260.483673,187.825378 
z"/>
<path fill="#DA9332" opacity="1.000000" stroke="none" 
	d="
M217.382050,185.366135 
	C217.271271,185.167557 217.407486,184.775269 217.800919,184.200378 
	C217.915100,184.402664 217.772064,184.787537 217.382050,185.366135 
z"/>
<path fill="#DA9332" opacity="1.000000" stroke="none" 
	d="
M239.270844,188.722961 
	C239.701263,188.721649 239.960754,188.916672 240.250183,189.430176 
	C240.349319,189.656555 240.158386,189.841400 239.855850,189.811951 
	C239.293655,189.583481 239.097580,189.334412 238.965088,189.035278 
	C238.965088,189.035278 239.169113,188.827255 239.270844,188.722961 
z"/>
<path fill="#DA9332" opacity="1.000000" stroke="none" 
	d="
M221.271118,179.956955 
	C221.230087,179.778534 221.428802,179.502899 221.868729,179.130371 
	C221.910248,179.308899 221.710556,179.584320 221.271118,179.956955 
z"/>
<path fill="#DA9332" opacity="1.000000" stroke="none" 
	d="
M241.963745,177.329987 
	C242.149048,177.249115 242.446228,177.401825 242.866913,177.777893 
	C242.685471,177.855347 242.380554,177.709457 241.963745,177.329987 
z"/>
<path fill="#EC9927" opacity="1.000000" stroke="none" 
	d="
M181.416214,165.028946 
	C181.534958,161.368835 181.945099,157.907944 182.685791,154.241974 
	C185.387589,153.420776 187.799133,152.178329 190.121078,152.327805 
	C194.117020,152.585007 197.519958,155.185699 197.551208,159.130905 
	C197.575241,162.165009 196.001526,166.043823 193.784531,168.053726 
	C190.992371,170.585083 186.930939,169.945297 183.716461,167.437790 
	C182.942963,166.834427 182.371811,165.971649 181.416214,165.028946 
z"/>
<path fill="#010000" opacity="1.000000" stroke="none" 
	d="
M296.326904,188.787231 
	C295.897552,188.203995 295.735657,187.454010 295.743042,186.356537 
	C296.139618,186.879532 296.366974,187.750000 296.326904,188.787231 
z"/>
<path fill="#EC9927" opacity="1.000000" stroke="none" 
	d="
M262.731628,157.373810 
	C263.450623,157.162735 263.923431,157.197205 264.701935,157.423080 
	C266.967407,159.246948 268.927185,160.879410 271.157471,162.737213 
	C269.346191,164.182007 268.261169,165.047470 267.097778,166.197540 
	C266.572083,166.607361 266.124756,166.732574 265.327515,166.825958 
	C263.739685,166.665054 262.132355,165.973389 261.326721,166.502472 
	C257.447113,169.050323 254.883820,167.067078 252.177963,164.384979 
	C253.952744,159.462601 258.661530,159.201263 262.731628,157.373810 
z"/>
<path fill="#EC9927" opacity="1.000000" stroke="none" 
	d="
M215.628632,149.307068 
	C213.776077,144.888321 216.472855,142.442337 219.069580,139.634979 
	C223.452576,138.161560 227.968887,137.484604 230.491043,141.610260 
	C231.967926,144.026108 232.626678,148.226364 231.496414,150.594284 
	C230.342224,153.012360 226.699615,155.217133 223.874405,155.623276 
	C220.106506,156.164963 217.098267,153.544662 215.628632,149.307068 
z"/>
<path fill="#EC9927" opacity="1.000000" stroke="none" 
	d="
M238.757843,188.918488 
	C239.097580,189.334412 239.293655,189.583481 239.759827,189.903763 
	C239.797714,190.809967 239.895950,191.942902 239.410767,192.314896 
	C237.923080,193.455536 230.432953,191.557266 229.093658,189.478683 
	C229.381302,188.918549 229.612305,188.711960 229.925873,188.262329 
	C232.387421,188.048996 234.726929,188.034531 237.502380,188.050995 
	C238.089874,188.366516 238.293961,188.606445 238.757843,188.918488 
z"/>
</svg>